<?xml version="1.0" encoding="UTF-8" standalone="no"?>
<svg
   xmlns:dc="http://purl.org/dc/elements/1.1/"
   xmlns:cc="http://creativecommons.org/ns#"
   xmlns:rdf="http://www.w3.org/1999/02/22-rdf-syntax-ns#"
   xmlns:svg="http://www.w3.org/2000/svg"
   xmlns="http://www.w3.org/2000/svg"
   xmlns:sodipodi="http://sodipodi.sourceforge.net/DTD/sodipodi-0.dtd"
   xmlns:inkscape="http://www.inkscape.org/namespaces/inkscape"
   width="24.836849mm"
   height="39.118027mm"
   viewBox="0 0 24.836849 39.118027"
   version="1.1"
   id="svg8"
   inkscape:version="1.0.2-2 (e86c870879, 2021-01-15)"
   sodipodi:docname="logoL2.svg">
  <defs
     id="defs2" />
  <sodipodi:namedview
     id="base"
     pagecolor="#ffffff"
     bordercolor="#666666"
     borderopacity="1.0"
     inkscape:pageopacity="0.0"
     inkscape:pageshadow="2"
     inkscape:zoom="0.98994949"
     inkscape:cx="-357.15992"
     inkscape:cy="31.522544"
     inkscape:document-units="mm"
     inkscape:current-layer="layer1"
     inkscape:document-rotation="0"
     showgrid="false"
     inkscape:window-width="1601"
     inkscape:window-height="1041"
     inkscape:window-x="156"
     inkscape:window-y="0"
     inkscape:window-maximized="0" />
  <metadata
     id="metadata5">
    <rdf:RDF>
      <cc:Work
         rdf:about="">
        <dc:format>image/svg+xml</dc:format>
        <dc:type
           rdf:resource="http://purl.org/dc/dcmitype/StillImage" />
        <dc:title />
      </cc:Work>
    </rdf:RDF>
  </metadata>
  <g
     inkscape:label="Capa 1"
     inkscape:groupmode="layer"
     id="layer1"
     transform="translate(-66.129119,-73.753963)">
    <path
       style="fill:#000000;stroke-width:0.264583"
       id="path24"
       d="" />
    <g
       id="g1035">
      <path
         style="fill:#ff6600;stroke-width:3.565;stroke-miterlimit:4;stroke-dasharray:none"
         id="path1026"
         d="m 76.85388,85.10045 c 0.14156,0.782611 0.361788,1.528964 0.783907,2.206511 1.177819,1.489477 3.953645,0.179538 4.472361,-1.634768 0.10918,-0.495329 0.108339,-1.005395 0.112445,-1.510022 0.179149,-2.279488 -3.33099,-0.297804 -3.919442,1.407531 -0.61109,2.551684 1.884436,0.182779 3.699999,-0.783098 0.107577,-0.462362 0.199917,-0.927844 0.152588,-1.402802 -0.164521,-0.578123 -0.616741,-0.803138 -1.182272,-0.695923 -1.821191,0.800147 -3.92548,1.647258 -4.903703,3.468232 -0.29677,0.648242 -0.340444,1.348417 -0.286128,2.048626 0.05548,0.769517 0.249507,1.503913 0.671679,2.15097 0.451773,0.572958 1.146498,0.801857 1.828258,0.974598 0.721606,0.178232 1.242906,0.174898 1.946878,-0.04881 2.014058,-0.768977 3.844568,-1.957308 5.642795,-3.137699 0.80817,-0.512757 1.402212,-1.23685 1.980261,-1.985047 0.537024,-0.800737 1.065374,-1.607283 1.624885,-2.392701 0.51399,-0.759523 0.891807,-1.605716 1.212221,-2.462877 0.26667,-0.70627 0.31687,-1.437621 0.246745,-2.181431 -0.0444,-0.69855 -0.288925,-1.202756 -0.716754,-1.740691 -0.498081,-0.681609 -0.891468,-1.426115 -1.437751,-2.072976 -0.621244,-0.66367 -1.378559,-1.104334 -2.235017,-1.382998 -1.370703,-0.332772 -2.739221,-0.125294 -4.094938,0.156633 -2.745534,0.604301 -4.96919,2.105689 -7.397642,3.500893 6.530658,-3.774102 0.591344,-0.349086 -0.979913,0.595979 -0.625404,0.376163 -1.305727,0.975455 -1.893387,1.42889 -0.78726,0.572095 -1.588477,1.134772 -2.263693,1.839357 -0.566529,0.68058 -1.088144,1.403866 -1.626391,2.110737 -0.675445,0.869995 -1.146988,1.8732 -1.595187,2.873224 -0.354293,0.801299 -0.503036,1.664857 -0.558583,2.533254 -0.06654,0.875956 0.249346,1.719214 0.527371,2.535869 0.279545,0.761516 0.719547,1.425305 1.280525,2.003952 0.605575,0.599276 1.440158,0.780846 2.234467,0.996759 0.718375,0.173437 1.423032,0.399254 2.141529,0.571432 0.716394,0.194283 1.451782,0.294849 2.175941,0.452712 0.830244,0.199435 1.661795,0.395023 2.485729,0.619361 0.724133,0.189161 1.407202,0.467767 2.047751,0.852892 0.776335,0.599541 1.523087,1.245349 2.198446,1.957499 0.490755,0.576519 0.926251,1.188232 1.324542,1.831092 0.443013,0.74338 0.698867,1.54395 0.846259,2.39091 0.07529,0.63382 0.146254,1.28074 0.06379,1.91642 -0.04426,0.62248 -0.257117,1.19759 -0.470924,1.77601 -0.04104,0.10156 -0.07464,0.20646 -0.123119,0.30468 -0.09165,0.18568 -0.215138,0.35442 -0.307379,0.5398 -0.129628,0.26052 -0.214755,0.53747 -0.330303,0.80413 -0.199208,0.5225 -0.338458,1.0667 -0.539404,1.58806 -0.0803,0.27337 -0.207264,0.52785 -0.311608,0.79236 0,0 3.594833,-1.66218 3.594833,-1.66218 v 0 c 0.108596,-0.2664 0.217194,-0.53301 0.305901,-0.80691 0.172908,-0.52618 0.343209,-1.05411 0.548359,-1.56876 0.228047,-0.5663 0.532498,-1.09346 0.749806,-1.66394 0.2164,-0.60457 0.376317,-1.22297 0.425082,-1.86594 0.04229,-0.67121 -0.0164,-1.34477 -0.128439,-2.00751 -0.179226,-0.88606 -0.457335,-1.731143 -0.917813,-2.515106 -0.407591,-0.671375 -0.847559,-1.311875 -1.370307,-1.901084 -0.702495,-0.730628 -1.482973,-1.380244 -2.248217,-2.043493 -0.655241,-0.420029 -1.342477,-0.760561 -2.102014,-0.948016 -0.824148,-0.247139 -1.67254,-0.410644 -2.505517,-0.625798 -0.715904,-0.189685 -1.448848,-0.270732 -2.161244,-0.474106 -0.726209,-0.140642 -1.426016,-0.382228 -2.148734,-0.538978 -0.725199,-0.205703 -1.523973,-0.323236 -2.1103,-0.831114 -0.524614,-0.52855 -0.947995,-1.137288 -1.206633,-1.84176 -0.25927,-0.777155 -0.528793,-1.572746 -0.437737,-2.403728 0.07651,-0.825929 0.23151,-1.639711 0.58974,-2.395673 0.456698,-0.984673 0.95412,-1.956205 1.645627,-2.80044 0.530383,-0.700577 1.041029,-1.425453 1.651074,-2.058627 0.709628,-0.651087 1.489612,-1.214779 2.262275,-1.788018 0.461806,-0.353261 0.920223,-0.714592 1.395378,-1.049898 0.166962,-0.117822 0.687377,-0.441148 0.508272,-0.342762 -0.797494,0.438068 -8.296317,4.771387 0.987576,-0.584994 -6.698432,3.8344 -3.129812,1.74974 -2.30078,1.341205 0.950632,-0.468461 1.948609,-0.834565 2.972705,-1.106046 1.292013,-0.284237 2.595563,-0.531791 3.915656,-0.265922 0.810064,0.211153 1.525273,0.579456 2.112941,1.190662 0.550106,0.63696 0.941687,1.378093 1.418799,2.068115 0.365152,0.460275 0.578975,0.940282 0.60115,1.539137 0.04997,0.693251 -0.05445,1.366859 -0.31342,2.015077 -0.33119,0.826178 -0.707668,1.640462 -1.230411,2.365357 -0.552664,0.790035 -1.081609,1.596324 -1.645039,2.378744 -0.585859,0.72784 -1.231453,1.386748 -2.041591,1.868625 -1.15956,0.726708 -3.074307,1.790814 2.31679,-1.292204 0.128966,-0.07375 -0.255397,0.152083 -0.386609,0.221766 -0.130205,0.06915 -0.262798,0.133951 -0.397214,0.194501 -0.126847,0.05714 -0.257432,0.105587 -0.386146,0.158379 -0.260491,0.09701 -0.594995,0.275127 -0.874001,0.310798 -0.307774,0.03935 -0.636341,-0.07828 -0.941811,-0.08801 -0.594736,-0.114686 -1.233067,-0.264255 -1.660766,-0.722617 -0.3932,-0.5828 -0.544673,-1.259731 -0.581324,-1.95826 -0.009,-0.642295 0.05872,-1.278388 0.393608,-1.842175 0.207801,-0.306218 0.421672,-0.574823 0.708615,-0.813247 0.09871,-0.08202 0.421177,-0.291912 0.308742,-0.230031 -1.461312,0.804259 -4.293661,2.465088 -2.849097,1.61876 0.276458,-0.16832 0.677839,-0.391647 0.778947,0.07413 -5.29e-4,0.336095 -0.01109,0.872574 -0.334598,1.058238 1.145882,-0.59799 2.269091,-1.241597 3.437642,-1.793973 0.04701,-0.02223 0.01876,0.102833 0.03678,0.151606 0.0098,0.02658 -0.01252,-0.05586 -0.01185,-0.0842 0.0049,-0.213907 0.07005,-0.416869 0.164706,-0.607149 0.847857,-1.201934 0.06624,-0.04011 -3.269652,1.545232 -0.02781,0.0132 -0.0478,-0.0921 -0.01704,-0.09078 0.02418,0.0011 0.04963,0.150416 0.05576,0.304088 0.0035,0.08898 -0.0016,0.178094 -0.0026,0.267142 -0.01072,0.43687 0.01738,0.930288 -0.224676,1.311794 -1.193691,0.628764 -1.556133,0.820549 3.209158,-1.76135 0.04071,-0.02207 -0.06736,0.07085 -0.11239,0.08161 -0.20284,0.04849 -0.380254,-0.159168 -0.502967,-0.277421 -0.413605,-0.61735 -0.612169,-1.318173 -0.692206,-2.0544 0,0 -3.510661,1.844117 -3.510661,1.844117 z" />
      <path
         style="fill:#ff6600;stroke-width:3.565;stroke-miterlimit:4;stroke-dasharray:none"
         id="path1028"
         d="m 80.450755,112.87199 c 0.809914,-0.11718 1.626293,-0.17955 2.443083,-0.22247 0.606724,-0.0298 1.214242,-0.0315 1.821519,-0.0365 1.526606,0.0621 5.318445,-0.98324 4.281178,-2.48343 -0.09546,-0.13806 -0.246647,-0.22773 -0.369972,-0.3416 0,0 -3.343236,2.09572 -3.343236,2.09572 v 0 c 0.937882,0.58644 -0.06412,0.21436 3.42532,-1.75843 0.06846,-0.0387 -0.134117,0.085 -0.208635,0.1102 -0.210759,0.0711 -0.363034,0.0511 -0.583509,0.0507 -0.613741,-0.002 -1.227672,0.002 -1.840968,0.0272 -0.817004,0.0392 -1.632209,0.10364 -2.445822,0.18799 0,0 -3.178958,2.3706 -3.178958,2.3706 z" />
      <path
         style="fill:#ff6600;stroke-width:3.565;stroke-miterlimit:4;stroke-dasharray:none"
         id="path1030"
         d="m 83.802886,103.80931 c 0.102489,0.88766 0.291425,1.75904 0.58135,2.60375 0.302369,0.77071 0.605306,1.54151 0.940049,2.29878 0.202993,0.4935 0.32431,1.01711 0.521798,1.51182 0.02891,0.0722 0.05781,0.14444 0.08672,0.21667 0,0 3.465446,-1.93664 3.465446,-1.93664 v 0 c -0.02901,-0.0713 -0.05803,-0.14251 -0.08704,-0.21376 -0.197204,-0.50082 -0.320397,-1.03042 -0.542811,-1.52239 -0.345003,-0.73741 -0.66108,-1.48989 -0.93236,-2.25765 -0.275476,-0.82555 -0.486828,-1.67034 -0.522486,-2.54469 0,0 -3.510663,1.84411 -3.510663,1.84411 z" />
    </g>
  </g>
</svg>
