<?xml version="1.0" encoding="UTF-8" standalone="no"?>
<svg
   xmlns:dc="http://purl.org/dc/elements/1.1/"
   xmlns:cc="http://creativecommons.org/ns#"
   xmlns:rdf="http://www.w3.org/1999/02/22-rdf-syntax-ns#"
   xmlns:svg="http://www.w3.org/2000/svg"
   xmlns="http://www.w3.org/2000/svg"
   xmlns:sodipodi="http://sodipodi.sourceforge.net/DTD/sodipodi-0.dtd"
   xmlns:inkscape="http://www.inkscape.org/namespaces/inkscape"
   width="54.760849mm"
   height="95.920364mm"
   viewBox="0 0 54.760849 95.920364"
   version="1.1"
   id="svg8"
   inkscape:version="1.0.2-2 (e86c870879, 2021-01-15)"
   sodipodi:docname="logo3.svg">
  <defs
     id="defs2" />
  <sodipodi:namedview
     id="base"
     pagecolor="#ffffff"
     bordercolor="#666666"
     borderopacity="1.0"
     inkscape:pageopacity="0.0"
     inkscape:pageshadow="2"
     inkscape:zoom="0.98994949"
     inkscape:cx="-306.65419"
     inkscape:cy="246.30293"
     inkscape:document-units="mm"
     inkscape:current-layer="layer1"
     inkscape:document-rotation="0"
     showgrid="false"
     inkscape:window-width="1601"
     inkscape:window-height="1041"
     inkscape:window-x="156"
     inkscape:window-y="0"
     inkscape:window-maximized="0" />
  <metadata
     id="metadata5">
    <rdf:RDF>
      <cc:Work
         rdf:about="">
        <dc:format>image/svg+xml</dc:format>
        <dc:type
           rdf:resource="http://purl.org/dc/dcmitype/StillImage" />
        <dc:title />
      </cc:Work>
    </rdf:RDF>
  </metadata>
  <g
     inkscape:label="Capa 1"
     inkscape:groupmode="layer"
     id="layer1"
     transform="translate(-52.766145,-27.617434)">
    <path
       style="fill:#000000;stroke-width:0.264583"
       id="path24"
       d="" />
    <g
       id="g882">
      <path
         style="stroke-width:3.565;stroke-miterlimit:4;stroke-dasharray:none"
         id="path876"
         d="m 79.48487,56.017472 c 0.608788,0.624633 1.287637,1.151194 2.082141,1.512183 1.801842,0.539287 3.834696,-0.913365 4.827302,-2.438024 0.320773,-0.631682 0.321495,-1.358075 0.349292,-2.050434 0.02111,-0.671247 0.01908,-1.342908 0.01767,-2.014394 0.05057,-0.627505 -0.210309,-1.08862 -0.674679,-1.480876 -0.462135,-0.327591 -1.013751,-0.403558 -1.563357,-0.448937 -0.544513,-0.04956 -1.076195,-0.02894 -1.609162,0.08795 -1.500438,0.527587 -3.071584,1.687563 -4.232198,2.390548 -0.290277,0.175821 -0.540237,0.46591 -0.812818,0.671361 -0.07879,0.07427 -0.15426,0.152215 -0.236353,0.222811 -0.220993,0.190051 -0.238146,0.149633 -0.419076,0.373661 -0.163589,0.202557 -0.239654,0.442261 -0.394276,0.652259 -0.36067,0.554744 -0.500042,1.20107 -0.621113,1.84128 -0.126108,0.71193 -0.171248,1.433981 -0.183327,2.155785 0.01556,0.618318 -0.05696,1.24414 0.03446,1.857484 0.100084,0.641426 0.554924,1.126934 0.970145,1.59445 0.69828,0.741061 1.450266,1.417976 2.27185,2.018795 0.630642,0.435655 1.336969,0.718127 2.079667,0.89004 0.797214,0.182298 1.5494,-0.05714 2.29243,-0.330711 2.033487,-0.829739 3.883228,-2.051709 5.641247,-3.356382 0.686692,-0.564777 1.365197,-1.147596 2.004888,-1.765255 0.662025,-0.761119 1.321655,-1.523744 2.005171,-2.265786 0.654056,-0.620437 1.20509,-1.318676 1.74883,-2.033476 0.815779,-1.29865 1.368901,-2.732556 1.801516,-4.197284 0.47571,-1.47174 0.673307,-2.992192 0.766644,-4.528799 0.0328,-1.420429 -0.08152,-2.822845 -0.568423,-4.162451 -0.401945,-0.975778 -1.075246,-1.791428 -1.902399,-2.432876 -1.70578,-1.042302 -3.619715,-1.673153 -5.457465,-2.43618 -1.56073,-0.701461 -3.182025,-1.205346 -4.872004,-1.459555 -1.676098,-0.213345 -3.324243,0.01217 -4.930184,0.494897 -2.353726,0.99363 -4.493694,2.429923 -6.627808,3.823867 -0.96697,0.533514 -1.778513,1.268603 -2.560087,2.037649 -0.786545,0.986345 -1.42535,2.081231 -2.106186,3.141496 -0.72812,1.036555 -1.453073,2.073177 -2.150459,3.130999 -0.667028,0.960531 -1.267111,1.943106 -1.686079,3.037721 -0.449,1.297909 -0.580755,2.508298 -0.600432,3.870839 -0.0609,1.321908 0.164859,2.613485 0.418026,3.903556 0.316312,1.543114 0.894366,3.017605 1.495912,4.46836 0.6845,1.59557 1.631685,3.041282 2.797296,4.321244 0.850326,0.95032 1.834851,1.759389 2.79413,2.593811 1.225468,1.056754 2.763366,1.646513 4.191992,2.373244 1.389809,0.763942 2.882307,1.314878 4.425741,1.666869 1.353844,0.244967 2.736972,0.546801 4.120144,0.373965 0.244703,-0.03057 0.484447,-0.09257 0.726671,-0.138859 1.12528,-0.323207 2.173541,-0.845296 3.181093,-1.432919 4.158612,-2.425378 2.798053,-1.516259 4.795941,-2.888803 1.373825,-0.956006 2.770893,-1.873896 4.171201,-2.789248 1.188378,-0.827802 2.320438,-1.719543 3.205315,-2.872338 0.94802,-1.479836 1.76053,-3.051826 2.47177,-4.658331 0.89248,-1.979996 1.73012,-3.981355 2.52696,-6.001507 0.90087,-2.588786 1.3529,-5.297275 1.68812,-8.008498 0.23598,-2.216568 0.38253,-4.447913 0.33872,-6.67748 -0.0375,-1.654378 -0.39212,-2.957226 -1.14051,-4.412916 -0.63566,-1.33205 -1.64843,-2.14825 -2.85331,-2.944389 -2.0207,-1.219872 -4.298291,-1.90444 -6.564506,-2.504237 -2.045623,-0.418555 -4.093622,-0.848675 -6.166492,-1.109154 -2.169668,-0.179483 -4.346136,0.01021 -6.469653,0.462446 -2.26944,0.522426 -4.456602,1.317147 -6.616401,2.175365 -1.821881,0.731528 -3.662627,1.41555 -5.436531,2.259015 -2.851002,1.330166 -5.431753,3.111122 -7.991607,4.911225 -1.0306,0.712015 -2.049905,1.447369 -2.979838,2.288265 -0.987267,1.021876 -1.684653,2.267299 -2.455238,3.44924 -0.918692,1.511861 -1.723808,3.091172 -2.504133,4.677828 -1.03949,2.193711 -1.857299,4.477176 -2.508409,6.813331 -0.46301,1.987629 -0.738066,4.016213 -0.923454,6.047184 -0.09114,1.237684 -0.139179,2.477958 -0.142566,3.71888 0.0186,0.770501 -0.04803,1.546101 0.08752,2.309746 0.100798,0.567854 0.22121,0.904865 0.388403,1.454515 0.367112,1.171634 0.929796,2.235121 1.733036,3.159483 0.677646,0.728929 1.355074,1.452155 2.087962,2.126085 0.816753,0.797002 1.686579,1.53156 2.587797,2.230171 0.742482,0.649411 1.548194,1.186489 2.426012,1.632526 0.865148,0.416103 1.723253,0.851575 2.626016,1.181288 1.660658,0.401881 3.353332,0.649544 5.00742,1.081998 1.987801,0.559932 3.982236,1.102976 5.942388,1.75456 1.13411,0.39528 2.264672,0.801368 3.277891,1.454624 0.819648,0.525166 1.489559,1.236975 2.118577,1.971024 0.706811,0.76427 1.41859,1.52508 2.095913,2.315768 0.696415,0.822397 1.250262,1.754667 1.724435,2.719303 0.356558,0.813962 0.451517,1.696667 0.497628,2.574216 0.029,0.822132 0.01839,1.644846 0.01574,2.467277 0.0052,1.051747 5.29e-4,2.103506 0.0043,3.155254 -0.0047,0.923393 -0.0094,1.846786 -0.01527,2.770176 -0.0044,0.61308 -0.0067,1.22618 -0.0079,1.83927 -0.0087,0.71168 0.04902,1.42512 -0.03226,2.13341 -0.10683,0.55696 -0.04044,1.12463 -0.0081,1.68553 -0.0066,0.51001 0.116256,1.0051 0.213075,1.50274 0.251774,0.93943 -3.146407,2.56352 3.046931,-1.89569 0.110095,-0.0793 -0.26366,0.0641 -0.395489,0.0961 0,0 -3.137717,2.38466 -3.137717,2.38466 v 0 c 1.473062,-0.28662 4.638106,-0.86731 3.989151,-2.46327 -0.110267,-0.4758 -0.19124,-0.95638 -0.191436,-1.44628 -0.03196,-0.54173 -0.07493,-1.08565 0.01492,-1.62503 0.04305,-0.72258 0.01723,-1.44752 0.03165,-2.17114 -0.0011,-0.61039 -0.0035,-1.22077 -0.008,-1.83114 -0.0058,-0.918332 -0.01042,-1.836671 -0.01373,-2.755011 0.0057,-1.055145 0.004,-2.110348 0.01871,-3.16543 0.0047,-0.830879 0.01619,-1.662906 -0.0245,-2.492999 -0.06937,-0.924854 -0.201441,-1.850131 -0.587288,-2.703545 -0.497562,-0.988666 -1.077341,-1.939327 -1.772872,-2.802437 -0.674881,-0.792409 -1.39672,-1.545013 -2.093294,-2.318224 -0.651949,-0.759899 -1.34172,-1.498711 -2.170623,-2.070039 -1.047237,-0.691287 -2.220468,-1.098592 -3.406534,-1.491705 -1.966801,-0.635164 -3.963519,-1.172149 -5.937419,-1.784749 -1.629101,-0.438177 -3.30563,-0.664025 -4.936792,-1.097415 -0.905539,-0.286131 -1.752161,-0.721932 -2.607053,-1.130324 -0.865357,-0.424707 -1.660697,-0.929918 -2.387545,-1.568185 -0.899551,-0.68253 -1.774946,-1.394402 -2.578652,-2.189877 -0.708774,-0.679802 -1.376223,-1.394688 -2.053752,-2.105131 -0.784706,-0.865325 -1.337646,-1.871932 -1.68457,-2.991594 -0.176689,-0.598842 -0.252675,-0.775716 -0.340604,-1.396021 -0.107346,-0.757282 -0.02479,-1.523523 -0.04667,-2.284401 0.0081,-1.222066 0.0091,-2.445452 0.106944,-3.664583 0.170405,-2.00162 0.420228,-4.002878 0.900338,-5.956416 0.659887,-2.322798 1.48622,-4.592169 2.560516,-6.758437 0.798978,-1.584249 1.63,-3.156136 2.572443,-4.660601 0.75651,-1.17483 1.475033,-2.398319 2.51075,-3.355777 0.947931,-0.804188 1.957337,-1.533853 2.97719,-2.24378 0.675452,-0.480841 1.347642,-0.965862 2.037768,-1.425681 0.277619,-0.18497 1.134369,-0.700326 0.838202,-0.546796 -0.515001,0.266975 -3.969443,2.22155 -1.499436,0.883301 1.757593,-0.877509 3.601313,-1.548485 5.421524,-2.282881 2.154754,-0.867473 4.319167,-1.715648 6.59116,-2.233818 2.086552,-0.487315 4.224382,-0.714127 6.367772,-0.548863 2.074166,0.23513 4.123722,0.63445 6.169631,1.043932 2.232183,0.566875 4.481996,1.203876 6.462691,2.41639 1.12337,0.768011 2.09917,1.555707 2.70672,2.806356 0.7399,1.410314 1.06763,2.616123 1.10725,4.228105 0.0391,2.203929 -0.0708,4.409953 -0.31012,6.601338 -0.34844,2.691085 -0.76511,5.393992 -1.75788,7.936013 -0.80207,2.017813 -1.65499,4.014764 -2.553923,5.991421 -0.752147,1.58165 -1.528268,3.174328 -2.56423,4.592494 -0.929529,1.079032 -2.041176,1.959914 -3.224758,2.749227 -1.404453,0.904748 -2.779564,1.852168 -4.160382,2.792606 -1.626058,1.078934 -0.734753,0.462838 1.797124,-0.948595 0.256228,-0.142838 -0.502021,0.303848 -0.757817,0.447461 -0.746649,0.419206 -1.523169,0.777026 -2.33153,1.061077 -0.233344,0.06165 -0.462714,0.141002 -0.700029,0.184944 -1.354206,0.250745 -2.721578,-0.03225 -4.052734,-0.278718 -1.528802,-0.314714 -3.008394,-0.834249 -4.384826,-1.576974 -1.404,-0.696207 -2.894237,-1.289826 -4.094887,-2.32132 -0.956358,-0.820565 -1.946106,-1.606444 -2.804859,-2.533213 -1.156689,-1.262317 -2.081958,-2.605122 -2.737471,-4.199088 -0.582319,-1.432375 -1.137463,-2.88866 -1.435312,-4.410792 -0.224457,-1.269304 -0.443545,-2.539561 -0.378034,-3.835437 0.02835,-1.28279 0.214106,-2.542982 0.676921,-3.74795 0.459012,-1.057722 1.070581,-2.017406 1.717754,-2.969358 0.688406,-1.058577 1.439357,-2.072397 2.133518,-3.12688 0.678537,-1.051409 1.307663,-2.154441 2.169411,-3.06973 0.788588,-0.743141 1.623915,-1.421273 2.568504,-1.960999 0.341101,-0.220986 0.730091,-0.473549 1.071602,-0.692542 0.173593,-0.111318 0.701614,-0.4333 0.521647,-0.332605 -5.416714,3.030768 -2.885305,1.628891 -1.673807,1.003998 1.56101,-0.557863 3.180294,-0.818755 4.839952,-0.649562 1.677296,0.224173 3.29425,0.687271 4.851362,1.356561 1.7994,0.741339 3.668686,1.362728 5.328751,2.398733 0.775732,0.587923 1.412576,1.336668 1.788118,2.244339 0.48143,1.283658 0.58461,2.636592 0.52252,4.001569 -0.108342,1.506424 -0.322821,2.998758 -0.790562,4.441169 -0.45526,1.440587 -1.021664,2.86063 -1.912077,4.093749 -0.548034,0.705226 -1.146186,1.360641 -1.764837,2.004664 -0.672166,0.745754 -1.313908,1.52002 -2.017678,2.236277 -0.660453,0.594016 -1.314694,1.199052 -2.03072,1.726493 -0.07734,0.0564 -0.625538,0.456483 -0.695203,0.505947 -0.127095,0.09024 -0.52056,0.342035 -0.384019,0.26684 5.495454,-3.026489 3.417816,-1.893332 2.194481,-1.293466 -0.685382,0.266735 -1.389211,0.601337 -2.143607,0.493834 -0.715703,-0.116154 -1.390084,-0.349506 -2.006589,-0.73969 -0.817409,-0.556815 -1.55025,-1.211567 -2.220238,-1.939147 -0.352954,-0.417161 -0.754248,-0.844677 -0.82936,-1.407985 -0.06238,-0.5958 -0.01127,-1.199256 -0.0182,-1.797233 0.02455,-0.698831 0.06097,-1.399617 0.204227,-2.086187 0.141756,-0.609039 0.332407,-1.203983 0.706165,-1.714642 0.27913,-0.459754 0.655966,-0.803694 1.08481,-1.128229 0.08755,-0.07204 0.457653,-0.377822 0.545129,-0.444685 0.09138,-0.06985 0.38041,-0.257717 0.279987,-0.201652 -5.516205,3.079617 -3.762068,2.162474 -2.585434,1.472089 0.497552,-0.185992 0.995762,-0.239686 1.526236,-0.196176 0.4846,0.01736 0.986015,0.03048 1.427742,0.254085 0.425669,0.292158 0.543734,0.64856 0.503806,1.164304 0.0051,0.662519 0.01386,1.325425 -0.01236,1.98764 -0.03753,0.635976 -0.06064,1.313252 -0.471588,1.835124 -0.934887,0.941728 -3.210065,1.909966 2.808208,-1.462924 0.07157,-0.04011 -0.137033,0.09229 -0.212926,0.123455 -0.221104,0.09079 -0.257712,0.05395 -0.495477,0.02543 -0.778261,-0.284946 -1.44494,-0.756063 -1.985844,-1.388237 0,0 -3.379231,2.070796 -3.379231,2.070796 z" />
      <path
         style="stroke-width:3.565;stroke-miterlimit:4;stroke-dasharray:none"
         id="path878"
         d="m 84.305449,116.67786 c -0.743435,0.8248 -1.269641,1.81583 -1.718104,2.82494 -0.353878,0.88017 -0.487341,1.46137 -0.129823,2.35918 0.454297,0.89314 1.032954,1.25505 1.976443,1.51096 2.616726,0.52004 2.537841,-0.20502 5.639921,-1.96642 0.682369,-0.4525 1.005483,-1.18377 1.237073,-1.94094 0.270311,-0.88381 0.396994,-1.79913 0.478242,-2.71691 0.04763,-0.62307 0.145164,-1.23345 -0.235236,-1.76545 -0.178548,-0.16347 -0.480324,-0.38226 -0.744982,-0.24032 -2.648772,1.42063 -2.910308,1.25305 -4.148224,2.63064 -0.400545,0.52065 -0.852916,0.96348 -1.106699,1.57859 -0.174575,0.5554 -0.260845,0.98114 0.288168,1.31564 3.146147,-1.7712 3.648636,-1.1281 3.810569,-3.54308 0.06298,-0.68053 -0.0181,-1.36283 -0.614143,-1.76981 -2.221455,-0.39597 -3.83689,1.80524 -4.894884,3.4102 -0.25477,0.52558 -0.704742,1.03104 -0.760299,1.63774 -0.01236,0.13488 0.01299,0.27058 0.01947,0.40587 0.200859,0.96713 0.960551,1.42384 1.745544,1.89483 0.316751,0.16254 0.629287,0.37484 0.981554,0.45795 1.438219,0.3393 3.745301,-1.93269 3.942611,-2.06306 0.115369,-0.0762 0.08552,-0.26301 0.128278,-0.39451 0.08707,-0.50318 0.438071,-1.44001 0.165457,-1.92802 -0.05178,-0.0927 -0.148624,-0.15167 -0.222937,-0.2275 -1.579994,-0.44785 -0.374179,-0.17423 -3.834152,2.03897 -0.07689,0.0492 -0.08668,0.16146 -0.117324,0.24744 -0.123894,0.34761 -0.01095,0.51063 0.211844,0.77366 0.354026,0.19458 0.860642,0.29691 1.241722,0.0886 3.455418,-1.88915 2.608926,-1.22542 3.942714,-2.3091 0.636276,-0.59751 1.036294,-1.35038 1.330291,-2.16145 0.253405,-0.78691 0.113395,-1.48952 -0.339243,-2.16178 -0.443691,-0.5649 -1.065956,-0.75111 -1.746137,-0.85377 -0.575683,-0.0494 -1.16256,-0.10946 -1.734243,-0.004 -1.500722,0.66441 -3.045423,1.41051 -4.27455,2.49527 -0.07063,0.0623 -0.128831,0.13747 -0.193249,0.2062 -0.08117,0.0708 -0.162335,0.14168 -0.243501,0.21251 -0.586473,0.51111 -1.029372,1.11481 -1.438381,1.77051 -0.276818,0.57032 -0.479454,1.16771 -0.730983,1.75051 -0.15067,0.35821 -0.219115,0.7385 -0.273637,1.12057 0,0 3.560691,-1.74038 3.560691,-1.74038 v 0 c 0.06897,-0.35405 0.15699,-0.70288 0.310872,-1.03134 0.247025,-0.56449 0.408392,-1.16726 0.74595,-1.68828 0.414108,-0.63113 0.915086,-1.17825 1.48758,-1.67159 0.270685,-0.24101 0.198713,-0.1874 0.464304,-0.38781 0.06517,-0.0492 0.268359,-0.18531 0.197237,-0.14522 -5.685504,3.20468 -3.861525,2.32482 -2.745306,1.54336 0.509907,-0.26283 1.083508,-0.1562 1.64016,-0.14387 0.579358,0.0498 1.153533,0.10966 1.56414,0.57032 0.389916,0.55874 0.427627,1.18133 0.172476,1.81616 -0.319905,0.76139 -0.751461,1.46224 -1.429462,1.95791 -1.286536,0.82104 -0.425074,0.26439 2.842652,-1.59218 0.08549,-0.0486 -0.168209,0.10287 -0.257831,0.14332 -0.195755,0.0884 -0.313047,0.11106 -0.525053,0.12266 -0.06331,0.003 -0.126732,-0.004 -0.1901,-0.006 -0.390316,0.0131 0.616966,-0.64337 0.204991,-0.42145 -3.268186,1.76043 -3.723603,2.97979 -3.175677,1.64236 0.01998,-0.0262 0.03963,-0.10437 0.05995,-0.0785 0.198776,0.25326 -0.148214,1.40028 -0.270124,1.67482 -0.973286,1.19115 -0.342773,0.35488 3.009344,-1.49661 0.0686,-0.0379 -0.138316,0.0854 -0.216415,0.0918 -0.332068,0.0275 -0.653452,-0.24774 -0.940623,-0.35911 -0.658546,-0.38757 -1.408057,-0.69695 -1.529816,-1.54017 0.07233,-0.6874 0.472607,-1.25844 0.828516,-1.83561 0.231807,-0.34069 0.460389,-0.6897 0.751565,-0.98441 0.08617,-0.0872 0.385046,-0.29951 0.276471,-0.24257 -3.096358,1.62386 -3.956013,2.71267 -3.050479,1.60741 0.547516,-0.0254 0.405001,0.99723 0.387178,1.31704 -0.03657,0.29813 -0.06735,0.59774 -0.176657,0.88053 -0.02773,0.0717 -0.05755,0.14362 -0.09909,0.20833 -0.03453,0.0538 -0.18333,0.17382 -0.12691,0.14377 1.117023,-0.59494 2.212626,-1.22925 3.318939,-1.84387 -0.0038,0.0635 0.0033,0.23701 -0.03636,0.18729 -0.01895,-0.0238 -0.02297,-0.0578 -0.02302,-0.0882 -5.29e-4,-0.23137 0.09894,-0.45056 0.187473,-0.65823 0.306639,-0.53983 0.748451,-0.98179 1.142447,-1.45782 0.08698,-0.0843 0.169492,-0.17341 0.260948,-0.2528 0.08419,-0.0731 0.363302,-0.25669 0.265126,-0.20387 -1.871851,1.00701 -4.293481,2.42819 -2.955325,1.64056 0.04466,-0.0263 0.08236,-0.0747 0.134022,-0.0788 0.04706,-0.004 0.08623,0.0385 0.129345,0.0577 0.346014,0.37634 0.09721,1.03268 0.121642,1.48829 -0.08084,0.89186 -0.213963,1.78129 -0.517419,2.62829 -0.282104,0.71421 -0.65894,1.32454 -1.359623,1.69398 1.044414,-0.58768 2.089243,-1.17463 3.133244,-1.76304 0.08782,-0.0495 -0.168521,0.11606 -0.264695,0.14627 -0.501152,0.15746 -1.080513,-0.059 -1.583798,-0.0757 -0.845921,-0.1719 -1.352553,-0.38499 -1.76312,-1.18948 -0.257807,-0.75441 -0.05488,-1.35977 0.250285,-2.07425 0.464191,-0.99027 1.008288,-1.95388 1.811753,-2.71204 0,0 -3.661574,1.51667 -3.661574,1.51667 z" />
    </g>
  </g>
</svg>
