<?xml version="1.0" encoding="UTF-8" standalone="no"?>
<svg
   xmlns:dc="http://purl.org/dc/elements/1.1/"
   xmlns:cc="http://creativecommons.org/ns#"
   xmlns:rdf="http://www.w3.org/1999/02/22-rdf-syntax-ns#"
   xmlns:svg="http://www.w3.org/2000/svg"
   xmlns="http://www.w3.org/2000/svg"
   xmlns:sodipodi="http://sodipodi.sourceforge.net/DTD/sodipodi-0.dtd"
   xmlns:inkscape="http://www.inkscape.org/namespaces/inkscape"
   width="36.082127mm"
   height="52.688019mm"
   viewBox="0 0 36.082127 52.688019"
   version="1.1"
   id="svg8"
   inkscape:version="1.0.2-2 (e86c870879, 2021-01-15)"
   sodipodi:docname="logo2.svg">
  <defs
     id="defs2" />
  <sodipodi:namedview
     id="base"
     pagecolor="#ffffff"
     bordercolor="#666666"
     borderopacity="1.0"
     inkscape:pageopacity="0.0"
     inkscape:pageshadow="2"
     inkscape:zoom="0.98994949"
     inkscape:cx="-331.85347"
     inkscape:cy="213.43633"
     inkscape:document-units="mm"
     inkscape:current-layer="layer1"
     inkscape:document-rotation="0"
     showgrid="false"
     inkscape:window-width="1601"
     inkscape:window-height="1041"
     inkscape:window-x="156"
     inkscape:window-y="0"
     inkscape:window-maximized="0" />
  <metadata
     id="metadata5">
    <rdf:RDF>
      <cc:Work
         rdf:about="">
        <dc:format>image/svg+xml</dc:format>
        <dc:type
           rdf:resource="http://purl.org/dc/dcmitype/StillImage" />
        <dc:title />
      </cc:Work>
    </rdf:RDF>
  </metadata>
  <g
     inkscape:label="Capa 1"
     inkscape:groupmode="layer"
     id="layer1"
     transform="translate(-59.433455,-36.313389)">
    <path
       style="fill:#000000;stroke-width:0.264583"
       id="path24"
       d="" />
    <g
       id="g890">
      <path
         style="stroke-width:3.565;stroke-miterlimit:4;stroke-dasharray:none"
         id="path884"
         d="m 80.350391,51.533641 c 0.5814,-0.448924 0.951629,-1.045218 1.176559,-1.734174 0.188357,-0.620215 0.145884,-1.168625 -0.301677,-1.650497 -1.795886,-1.12757 -3.376007,0.816911 -4.986626,1.7433 -0.414983,0.460703 -0.599628,1.059942 -0.793946,1.636175 -0.261985,0.528799 -0.388879,1.098177 -0.459182,1.679691 -0.09568,0.584886 0.135718,0.997016 0.65082,1.257504 0.57772,0.178353 1.190368,0.145838 1.787456,0.177689 0.750176,0.08989 1.501981,0.158911 2.256224,0.20288 2.047367,0.138067 3.309694,-1.257356 5.158583,-2.344537 0.628333,-0.520782 1.180452,-1.120709 1.650569,-1.786517 0.618323,-0.757031 1.004488,-1.659098 1.476462,-2.506241 0.386102,-0.670751 0.5465,-1.425186 0.630889,-2.185639 0.06912,-0.737539 0.09017,-1.186053 -0.18293,-1.889937 -0.390838,-0.829593 -0.999826,-1.526016 -1.732921,-2.067345 -1.13489,-0.632918 -2.443287,-0.649296 -3.70732,-0.626862 -1.394735,0.05876 -2.776665,0.256233 -4.091527,0.729814 -1.784223,0.78315 -0.461714,0.182718 -4.265594,2.394492 -0.517004,0.300614 -0.964108,0.650407 -1.394429,1.062612 -0.645051,0.534519 -1.261565,1.089993 -1.773287,1.754957 -0.626581,0.76735 -1.274697,1.514163 -1.814047,2.348315 -0.631788,0.824992 -0.900703,1.756007 -1.017641,2.770261 -0.06763,1.071557 -0.127386,2.151983 -0.04963,3.224205 0.10768,0.83984 0.536028,1.559157 1.021168,2.232988 0.844872,1.065744 2.096852,1.572363 3.336059,2.028539 1.549014,0.568976 3.175866,0.804315 4.810609,0.946462 0.870429,0.03675 1.748039,0.144359 2.618439,0.0447 0.427334,-0.04893 0.78151,-0.137681 1.198766,-0.229706 2.820027,-0.799293 5.283253,-2.463686 7.795284,-3.910991 1.813644,-1.043088 2.796437,-2.416395 3.833786,-4.179613 0.602567,-1.150188 1.198695,-2.32075 1.598977,-3.560513 0.211395,-0.654733 0.281639,-1.043932 0.429234,-1.709984 0.250616,-1.462558 0.403492,-2.951149 0.235283,-4.429582 -0.180075,-1.190316 -0.694568,-2.28245 -1.293611,-3.313912 -0.54783,-1.040985 -1.397889,-1.782953 -2.334967,-2.460286 -1.643573,-0.885868 -3.614248,-0.793361 -5.431083,-0.856755 -2.546257,-0.09209 -5.050303,0.369215 -7.511796,0.967824 -1.278811,0.351634 -2.577097,0.678532 -3.787248,1.233668 -1.645404,0.754795 -3.158379,1.770213 -4.72602,2.675514 -1.478502,0.790527 -2.71251,1.861796 -3.956867,2.968363 -1.336045,1.118174 -2.423623,2.474627 -3.503295,3.830288 -0.824786,1.113203 -1.507535,2.316835 -2.182916,3.523041 -0.468553,1.038148 -0.750168,2.165993 -0.997794,3.276909 -0.203456,0.964505 -0.243985,1.953551 -0.266692,2.936121 -0.0673,0.910797 0.0339,1.772277 0.460605,2.583826 0.44763,0.81743 1.122291,1.48355 1.835434,2.071185 1.020304,0.758338 2.175756,1.27585 3.365574,1.702755 0.868939,0.322596 1.786416,0.376489 2.702604,0.40351 1.03019,0.02267 2.060708,0.0067 3.090993,-2.64e-4 1.244978,-0.09046 2.431608,0.194934 3.593697,0.608989 0.853395,0.272428 1.593141,0.737237 2.251356,1.335921 0.765971,0.637032 1.23625,1.240218 1.658765,2.135592 0.344374,0.760928 0.467977,1.579734 0.527614,2.404798 0.02969,0.703236 0.02815,1.407559 0.03066,2.11134 0.0085,0.899036 -0.0043,1.79809 -0.0123,2.697081 0.01588,0.653698 -0.0034,1.296154 -0.08969,1.94337 -0.172225,0.67325 -0.220996,1.231418 -0.664189,1.789356 -0.07486,0.07977 -0.149717,0.159551 -0.224578,0.239326 0,0 3.637248,-1.543873 3.637248,-1.543873 v 0 c 0.07166,-0.0948 0.143322,-0.189606 0.214985,-0.284409 0.332428,-0.601379 0.444704,-1.280776 0.57935,-1.948748 0.08221,-0.660289 0.07486,-1.321959 0.06441,-1.986603 -0.0052,-0.896938 -0.01318,-1.793992 0.0013,-2.690884 0.0068,-0.71641 0.02837,-1.434359 -0.03488,-2.149107 -0.08804,-0.864693 -0.244919,-1.720363 -0.614106,-2.515074 -0.447082,-0.961014 -0.916135,-1.578954 -1.727859,-2.268646 -0.677399,-0.649324 -1.447252,-1.179579 -2.35246,-1.459277 -1.181849,-0.435685 -2.404205,-0.795306 -3.678341,-0.717381 -1.023382,-5.29e-4 -2.046779,0.0024 -3.070148,-0.0011 -0.888585,-0.01775 -1.785176,-0.0355 -2.641928,-0.301887 -1.167884,-0.369991 -2.296102,-0.852287 -3.28825,-1.583336 -0.672346,-0.553519 -1.306475,-1.182354 -1.736452,-1.947301 -0.39247,-0.755918 -0.41737,-1.566077 -0.370838,-2.405301 0.02752,-0.958236 0.07216,-1.920351 0.286523,-2.858579 0.255323,-1.082067 0.527656,-2.181567 1.038193,-3.174921 0.655482,-1.199478 1.355278,-2.375969 2.194629,-3.458342 1.056693,-1.345113 2.161842,-2.65208 3.485888,-3.747154 1.253757,-1.087392 2.540206,-2.12041 4.008445,-2.910469 -0.874733,0.500015 -1.75319,0.993571 -2.624201,1.500042 -0.230536,0.134051 0.464275,-0.262972 0.702583,-0.382667 1.205465,-0.605475 2.51092,-0.965549 3.80415,-1.329201 2.433688,-0.626242 4.909979,-1.111173 7.437117,-1.044334 1.739509,0.05526 3.607922,-0.01304 5.218999,0.729991 0.910963,0.623056 1.719921,1.323258 2.247289,2.313887 0.563845,0.991208 1.079553,2.018953 1.224999,3.165991 0.140452,1.437156 0.01228,2.881828 -0.258855,4.298529 -0.421404,1.812343 -1.104601,3.538201 -2.051695,5.144653 -1.081027,1.726626 -2.101033,3.003902 -3.919172,4.007697 5.04984,-2.89166 1.964208,-1.079492 0.804068,-0.553201 -0.366511,0.166267 -0.949775,0.370234 -1.336299,0.510016 -0.187418,0.06777 -0.374901,0.135377 -0.562353,0.203068 -0.306787,0.07747 -0.864481,0.224189 -1.17197,0.277307 -0.859242,0.148431 -1.730986,0.04114 -2.596157,0.02133 -1.614956,-0.109564 -3.228224,-0.304075 -4.761537,-0.854226 -1.170348,-0.409839 -2.35026,-0.872365 -3.150873,-1.867471 -0.441489,-0.613847 -0.838938,-1.269027 -0.925245,-2.03626 -0.06691,-1.048157 -0.02315,-2.104496 0.0808,-3.148931 0.158885,-0.961085 0.487059,-1.823981 1.086993,-2.605092 0.573636,-0.807651 1.221624,-1.553271 1.844805,-2.322211 0.548209,-0.62483 1.180788,-1.158584 1.805231,-1.70529 0.316857,-0.270359 0.637598,-0.507278 0.990372,-0.729946 0.136253,-0.086 0.552337,-0.331927 0.411859,-0.253018 -3.510513,1.9719 -3.857437,2.140281 -2.47673,1.435978 1.287719,-0.534921 2.64569,-0.803687 4.041081,-0.862131 1.188969,-0.02874 2.41921,-0.06222 3.523626,0.452339 0.695253,0.463474 1.254019,1.105813 1.59613,1.87316 0.198581,0.561671 0.154073,1.137965 0.09018,1.724081 -0.100505,0.719958 -0.296267,1.412613 -0.67215,2.042297 -0.450734,0.85126 -0.882494,1.717877 -1.509302,2.458826 -0.495753,0.626695 -1.047983,1.211091 -1.706629,1.670085 1.031407,-0.587412 2.057807,-1.183706 3.094225,-1.762234 0.09076,-0.05066 -0.163793,0.130069 -0.256037,0.177959 -0.330835,0.171762 -0.753483,0.187148 -1.113803,0.178369 -0.749364,-0.02943 -1.498494,-0.07724 -2.240722,-0.189291 -0.567261,-0.08176 -1.141672,-0.02867 -1.711092,-0.102791 -0.488948,-0.107092 -0.455536,-0.325313 -0.39293,-0.789485 0.09172,-0.557659 0.264998,-1.087202 0.490328,-1.605631 0.203539,-0.536581 0.397799,-1.083358 0.896266,-1.419135 -1.072785,0.598 -2.146073,1.195099 -3.218352,1.793999 -0.06233,0.03481 0.120287,-0.08055 0.188462,-0.101717 0.307692,-0.09554 0.648857,0.02683 0.94469,0.10586 0.399873,0.311322 0.235212,0.817587 0.09638,1.235083 -0.274251,0.629867 -0.697638,1.146069 -1.2862,1.51289 0,0 3.6972,-1.446609 3.6972,-1.446609 z" />
      <path
         style="stroke-width:3.565;stroke-miterlimit:4;stroke-dasharray:none"
         id="path886"
         d="m 77.254819,87.275198 c 0.425937,0.622006 0.802518,1.281253 1.464876,1.675908 1.797489,0.377446 3.757128,-1.443331 4.661699,-2.9854 0.375586,-0.531815 0.556646,-1.139341 0.652314,-1.774708 0.02048,-0.593077 -0.334613,-0.95694 -0.900395,-1.040485 -1.768719,0.141288 -3.442319,1.349592 -4.53054,2.734263 -0.376018,0.350009 -0.664845,0.820073 -0.879906,1.285081 -0.225719,0.469371 -0.238358,0.996458 -0.390094,1.485259 0,0 3.576251,-1.709975 3.576251,-1.709975 v 0 c 0.100444,-0.477803 0.178874,-0.964978 0.424505,-1.396053 0.270677,-0.433996 0.552988,-0.854255 0.922319,-1.21199 0.177189,-0.192119 0.138446,-0.163055 0.331883,-0.324567 0.05991,-0.05002 0.250976,-0.184235 0.182769,-0.146312 -5.538049,3.079189 -4.02286,2.311114 -2.855944,1.611879 0.421336,-0.05656 0.613849,-0.06854 0.558342,0.448892 -0.123349,0.592301 -0.353848,1.135602 -0.712565,1.627256 -0.175265,0.240906 -0.357709,0.493583 -0.585777,0.689218 -0.06641,0.05697 -0.291544,0.192829 -0.214596,0.151178 3.159766,-1.71028 4.154983,-2.57433 3.060883,-1.643888 -0.669301,-0.144343 -0.967396,-0.954865 -1.330883,-1.456798 0,0 -3.435141,1.981242 -3.435141,1.981242 z" />
    </g>
  </g>
</svg>
