<?xml version="1.0" encoding="UTF-8" standalone="no"?>
<svg
   xmlns:dc="http://purl.org/dc/elements/1.1/"
   xmlns:cc="http://creativecommons.org/ns#"
   xmlns:rdf="http://www.w3.org/1999/02/22-rdf-syntax-ns#"
   xmlns:svg="http://www.w3.org/2000/svg"
   xmlns="http://www.w3.org/2000/svg"
   xmlns:sodipodi="http://sodipodi.sourceforge.net/DTD/sodipodi-0.dtd"
   xmlns:inkscape="http://www.inkscape.org/namespaces/inkscape"
   width="42.304108mm"
   height="63.477009mm"
   viewBox="0 0 42.304108 63.477009"
   version="1.1"
   id="svg8"
   inkscape:version="1.0.2-2 (e86c870879, 2021-01-15)"
   sodipodi:docname="logoL3.svg">
  <defs
     id="defs2" />
  <sodipodi:namedview
     id="base"
     pagecolor="#ffffff"
     bordercolor="#666666"
     borderopacity="1.0"
     inkscape:pageopacity="0.0"
     inkscape:pageshadow="2"
     inkscape:zoom="0.98994949"
     inkscape:cx="-296.50032"
     inkscape:cy="290.37279"
     inkscape:document-units="mm"
     inkscape:current-layer="layer1"
     inkscape:document-rotation="0"
     showgrid="false"
     inkscape:window-width="1601"
     inkscape:window-height="1041"
     inkscape:window-x="156"
     inkscape:window-y="0"
     inkscape:window-maximized="0" />
  <metadata
     id="metadata5">
    <rdf:RDF>
      <cc:Work
         rdf:about="">
        <dc:format>image/svg+xml</dc:format>
        <dc:type
           rdf:resource="http://purl.org/dc/dcmitype/StillImage" />
        <dc:title />
      </cc:Work>
    </rdf:RDF>
  </metadata>
  <g
     inkscape:label="Capa 1"
     inkscape:groupmode="layer"
     id="layer1"
     transform="translate(-50.079602,-15.957282)">
    <path
       style="fill:#000000;stroke-width:0.264583"
       id="path24"
       d="" />
    <g
       id="g1057"
       transform="translate(-7.7508163,-68.15373)">
      <path
         style="fill:#ff6600;stroke-width:3.565;stroke-miterlimit:4;stroke-dasharray:none"
         id="path1043"
         d="m 80.734203,107.56868 c 0.520745,0.60771 1.169165,1.06828 1.928075,1.31885 1.742606,0.18169 4.048466,-0.82578 4.544353,-2.57501 0.08919,-0.51665 0.138515,-1.05359 0.05555,-1.57316 -0.170056,-0.53509 -0.61798,-0.7362 -1.133996,-0.81827 -1.837167,0.0203 -4.052054,1.19659 -3.914416,3.04808 0.0427,0.55836 0.188662,1.07354 0.540515,1.5121 0.442069,0.43073 1.022718,0.55683 1.613696,0.6293 0.489763,0.0683 0.951945,-0.003 1.384017,-0.2491 1.235716,-0.70259 2.463901,-1.41833 3.695851,-2.1275 0.714341,-0.48387 1.297586,-1.11477 1.767382,-1.83303 0.51334,-0.68686 0.751203,-1.50511 0.942827,-2.32803 0.158189,-0.75239 0.191199,-1.52338 0.211032,-2.28973 -0.02442,-0.565612 -0.328208,-1.03184 -0.611071,-1.500327 -0.348666,-0.539896 -0.751621,-1.046393 -1.17221,-1.532387 -0.399696,-0.500409 -0.907812,-0.818957 -1.513216,-1.003554 -0.572254,-0.139383 -1.164455,-0.129958 -1.749314,-0.133271 -0.737875,-0.0087 -1.427019,0.177337 -2.10395,0.448755 -1.881013,0.655346 -3.5296,1.782971 -5.235268,2.802935 7.132073,-4.032324 0.369212,-0.431425 -1.667047,1.107359 -0.581695,0.63094 -1.315146,1.08285 -1.943381,1.65758 -0.531789,0.5499 -1.054888,1.11213 -1.553972,1.69259 -0.47806,0.59317 -0.90887,1.22135 -1.296667,1.87842 -0.406186,0.69633 -0.806186,1.39603 -1.060101,2.16361 -0.190555,0.64913 -0.186277,1.32907 -0.195802,1.9992 -0.04662,0.68484 0.147005,1.29238 0.511125,1.86227 0.591362,0.82934 1.299937,1.56413 2.040104,2.26023 0.75262,0.62594 1.471808,1.32183 2.349992,1.76923 0.921229,0.41254 1.936451,0.47841 2.929527,0.54408 0.857012,0.0855 1.695551,-0.004 2.512304,-0.2647 1.57036,-0.67263 3.012223,-1.62294 4.472477,-2.49362 0.293296,-0.17488 0.732737,-0.58527 1.009115,-0.80903 0.516729,-0.41149 0.979866,-0.8932 1.509805,-1.2885 0.385279,-0.2874 0.694193,-0.44198 1.115669,-0.6789 1.207249,-0.70054 2.348783,-1.49751 3.408775,-2.4042 1.220668,-1.12625 2.356215,-2.3417 3.352213,-3.67071 0.85204,-1.17756 1.634685,-2.4034 2.130102,-3.774 0.375761,-1.424124 0.430152,-2.906952 0.486032,-4.371474 -0.0244,-0.490669 0.0717,-0.992642 0.0292,-1.48305 -0.0418,-0.482002 -0.236028,-0.950113 -0.393979,-1.401273 -0.498692,-1.255895 -1.198859,-2.413405 -1.916588,-3.553 -0.70793,-1.073155 -1.514139,-2.066544 -2.387537,-3.007669 -0.650917,-0.734626 -1.366906,-1.390277 -2.157815,-1.96991 -0.708292,-0.524801 -1.554432,-0.771472 -2.408488,-0.932397 -0.956625,-0.206015 -1.882741,-0.0078 -2.815043,0.21812 -1.694709,0.508203 -3.266416,1.348671 -4.836797,2.148808 -1.548524,0.764992 -3.115863,1.48921 -4.638143,2.305648 -1.894494,0.93123 -3.686062,2.02938 -5.51697,3.086901 -0.240107,0.138684 -0.957101,0.560449 -0.717378,0.421103 2.919089,-1.69681 3.440816,-1.966894 1.888905,-1.132676 -2.44789,1.191469 -4.631391,2.604156 -6.669024,4.356812 -1.146037,0.972241 -2.175343,2.07047 -3.146965,3.214976 -0.548888,0.641845 -1.090443,1.299211 -1.505166,2.039221 -0.147408,0.26303 -0.590521,1.22837 -0.710711,1.48641 -0.582165,1.49672 -1.299099,2.92701 -2.013617,4.36234 -0.116128,0.22306 -0.228602,0.44805 -0.348379,0.66917 -0.276633,0.51067 -0.454131,0.76028 -0.689986,1.29649 -0.33795,0.76832 -0.580303,1.57489 -0.812345,2.37945 -0.360918,1.46959 -0.417753,2.98134 -0.466,4.48599 -0.08794,1.24437 -0.01296,2.06751 0.535168,3.1923 0.495551,0.80471 1.203235,1.42655 1.952246,1.98669 0.658368,0.4947 1.401181,0.635 2.201807,0.68704 1.347711,0.0702 2.693728,-0.0384 4.037827,-0.12399 1.203609,-0.16522 2.406243,-0.28682 3.619937,-0.34843 1.687854,-0.11305 3.367511,-0.0167 5.014457,0.36758 1.149612,0.29066 2.123948,0.93101 3.068339,1.61876 0.90443,0.69643 1.683001,1.54457 2.425827,2.40742 0.639328,0.70078 0.949962,1.52958 1.109432,2.44713 0.108633,0.76482 0.117515,1.52714 -0.03334,2.28436 -0.374713,1.00741 -0.871151,1.96918 -1.31015,2.95169 -0.363392,0.81825 -0.430255,1.72073 -0.654183,2.5777 -0.119919,0.42162 -0.03762,0.68254 0.333611,0.89449 0,0 3.207858,-2.37162 3.207858,-2.37162 v 0 c -0.106759,0.52455 -0.01619,-0.15131 0.0084,-0.22976 0.177104,-0.84765 0.314034,-1.71187 0.676933,-2.5065 0.445143,-1.00346 0.963089,-1.98689 1.273604,-3.04085 0.124111,-0.80292 0.116068,-1.61233 -0.02698,-2.41421 -0.202946,-0.97375 -0.551805,-1.86398 -1.22882,-2.61493 -0.760754,-0.88378 -1.573739,-1.73724 -2.470616,-2.48308 -0.976508,-0.72992 -1.997559,-1.39521 -3.187512,-1.72317 -1.664108,-0.43894 -3.374295,-0.5435 -5.091068,-0.4457 -1.204814,0.0238 -2.405583,0.073 -3.590866,0.31056 -1.328764,0.10078 -2.660211,0.23035 -3.993973,0.15352 -0.73044,-0.0357 -1.439712,-0.0868 -2.066494,-0.50897 -0.716478,-0.49801 -1.382638,-1.07799 -1.860243,-1.81684 -0.525126,-1.06922 -0.524338,-1.83271 -0.475448,-3.01021 0.03343,-1.47318 0.112189,-2.95517 0.491561,-4.38671 0.45593,-1.52231 1.095248,-2.91136 1.888779,-4.2871 0.715571,-1.43148 1.372618,-2.88514 1.99354,-4.36031 0.612299,-1.247211 1.325867,-2.419464 2.278242,-3.441274 0.983594,-1.130154 2.020295,-2.211959 3.181533,-3.162758 0.504981,-0.421576 1.01242,-0.839406 1.543978,-1.227574 1.071449,-0.78242 3.677529,-2.22513 -1.510495,0.762035 2.044988,-1.081786 0.661588,-0.339863 4.741238,-2.684373 0.239953,-0.137898 0.957178,-0.556122 0.71637,-0.419716 -0.864444,0.489669 -1.733762,0.971166 -2.587345,1.479536 -0.47067,0.280321 1.866834,-1.00013 1.466345,-0.74218 1.534996,-0.825579 3.093839,-1.599948 4.671311,-2.342282 1.546635,-0.793707 3.090685,-1.613368 4.738346,-2.181627 0.88459,-0.235609 1.758392,-0.472765 2.678666,-0.316857 0.813453,0.108593 1.635614,0.28802 2.313747,0.77638 0.785886,0.551905 1.505167,1.165566 2.131515,1.898034 0.875461,0.907274 1.694468,1.861881 2.37863,2.924945 0.70517,1.109244 1.378159,2.252408 1.843276,3.485983 0.09638,0.303866 0.203668,0.609269 0.266514,0.922991 0.120428,0.60117 0.02638,1.222766 0.05011,1.82994 -0.03838,1.42952 -0.09466,2.882877 -0.541369,4.253557 -0.537607,1.3192 -1.297946,2.52401 -2.151822,3.66234 -1.015961,1.30807 -2.157616,2.51916 -3.412406,3.60183 -1.073493,0.8759 -2.21902,1.65329 -3.422504,2.34115 -0.953315,0.58798 -1.79651,1.30368 -2.643883,2.03328 -0.117967,0.0922 -0.235133,0.18552 -0.353904,0.27672 -0.116708,0.0896 -0.232839,0.1801 -0.35251,0.26572 -1.845622,1.32049 4.394602,-2.39754 2.349931,-1.33234 -0.124629,0.0649 -0.247666,0.13286 -0.371501,0.19929 -0.769067,0.33647 -1.593218,0.47254 -2.433474,0.41021 -0.949962,-0.0467 -1.927074,-0.0847 -2.821323,-0.44058 -0.881523,-0.35696 -1.582534,-1.04442 -2.307556,-1.64098 -0.702664,-0.68522 -1.416986,-1.37257 -1.959715,-2.19669 -0.316852,-0.5087 -0.442537,-1.05847 -0.401593,-1.65957 0.01654,-0.63587 0.03828,-1.27954 0.253603,-1.88552 0.283308,-0.73492 0.678431,-1.41907 1.091732,-2.08796 0.403016,-0.63135 0.820706,-1.25309 1.320509,-1.81351 0.510357,-0.55821 0.998881,-1.14155 1.568484,-1.64113 0.659419,-0.53345 1.310698,-1.073097 1.953186,-1.626367 0.307374,-0.214432 0.614138,-0.429898 0.929513,-0.632539 0.08513,-0.0547 0.345289,-0.211067 0.257339,-0.161029 -0.16937,0.09636 -9.080918,5.208465 0.508601,-0.288221 1.278405,-0.773046 0.56997,-0.341476 -2.811471,1.596396 -0.09991,0.05725 0.197824,-0.118745 0.302255,-0.167257 0.306062,-0.142182 0.641728,-0.210986 0.943713,-0.363511 0.661445,-0.257127 1.282353,-0.574117 2.015323,-0.568947 0.562512,-0.0016 1.12826,-0.01294 1.687349,0.05884 0.561141,0.106839 1.029091,0.335606 1.388935,0.797131 0.408443,0.464252 0.80096,0.947844 1.128144,1.472494 0.235598,0.41333 0.520457,0.80304 0.514821,1.30193 -0.01934,0.73969 -0.05704,1.48286 -0.233056,2.20485 -0.209454,0.78979 -0.498017,1.54609 -1.006229,2.19711 -0.507179,0.66975 -1.106802,1.2595 -1.838803,1.68366 1.027781,-0.58716 2.055563,-1.17432 3.083345,-1.76148 -0.234836,0.11563 -0.474887,0.29807 -0.724159,0.37894 -0.208926,0.0678 -0.311809,0.0456 -0.527637,0.039 -0.501087,-0.0303 -1.024761,-0.0648 -1.442802,-0.37383 -0.314569,-0.34149 -0.38253,-0.81925 -0.402268,-1.26991 0.01995,-0.19344 0.04227,-0.39415 0.176411,-0.5492 0.03549,-0.041 0.175268,-0.127 0.127847,-0.10067 -3.201683,1.77788 -4.269396,2.63316 -3.140213,1.74088 0.315736,-0.0668 0.729954,-0.0284 0.835322,0.32819 0.04202,0.46137 0.01296,0.94798 -0.152363,1.38373 -0.03498,0.0537 -0.06237,0.11319 -0.104937,0.1611 -0.04121,0.0464 -0.197773,0.14867 -0.143512,0.11857 7.090333,-3.93335 3.762798,-1.79293 2.567768,-1.6085 -0.705673,-0.10741 -1.303745,-0.53862 -1.756654,-1.07996 0,0 -3.42538,2.00717 -3.42538,2.00717 z" />
      <path
         style="fill:#ff6600;stroke-width:3.565;stroke-miterlimit:4;stroke-dasharray:none"
         id="path1053"
         d="m 81.70887,144.24399 c -0.322665,0.60883 -0.763394,1.21281 -0.835607,1.92187 -0.01312,0.12898 0.01302,0.25897 0.01953,0.38846 0.190953,0.65025 0.571664,0.92923 1.234977,0.81503 -0.102298,-0.19406 3.745423,-1.38409 4.10509,-2.93194 0.06156,-0.26491 0.0024,-0.39167 -0.05681,-0.64252 -0.798724,-1.75508 -3.576032,1.30783 -4.038561,1.60846 -0.02738,0.0178 -0.127653,0.47145 -0.131124,0.48627 -0.0965,0.588 -0.148371,1.23597 0.283686,1.6984 3.652872,-1.94676 3.682188,-1.02047 3.887607,-3.72206 0.02569,-0.34829 -0.07207,-0.62534 -0.229491,-0.92486 0,0 -3.443007,1.97401 -3.443007,1.97401 v 0 c 0.127756,0.22919 0.167576,0.44367 0.141711,0.71119 -0.03514,0.35297 -0.06823,0.70723 -0.164836,1.05024 -0.02739,0.0973 -0.05386,0.19607 -0.09849,0.28675 -0.03437,0.0698 -0.206468,0.22286 -0.136028,0.18976 1.148567,-0.53964 2.263815,-1.14753 3.395723,-1.72129 -0.278556,0.20065 -0.128709,-1.13849 -0.04452,-1.22975 0.03006,-0.0658 0.05154,-0.13615 0.09019,-0.19725 0.03249,-0.0514 0.174337,-0.16548 0.120904,-0.1365 -1.109485,0.60175 -2.175901,1.28247 -3.298282,1.85981 -0.07496,0.0386 0.01482,-0.26395 0.101745,-0.19187 0.03504,0.0291 0.04071,0.0814 0.06107,0.12216 0.01765,0.1972 0.04297,0.20602 -0.05172,0.40215 -0.586486,1.21481 -4.034012,2.43792 2.622386,-1.15739 -0.315849,0.2555 -0.73075,0.36896 -0.831953,-0.14497 0.04327,-0.79123 0.515001,-1.45832 0.93304,-2.10557 0,0 -3.637222,1.59141 -3.637222,1.59141 z" />
    </g>
  </g>
</svg>
