<?xml version="1.0" encoding="UTF-8" standalone="no"?>
<svg
   xmlns:dc="http://purl.org/dc/elements/1.1/"
   xmlns:cc="http://creativecommons.org/ns#"
   xmlns:rdf="http://www.w3.org/1999/02/22-rdf-syntax-ns#"
   xmlns:svg="http://www.w3.org/2000/svg"
   xmlns="http://www.w3.org/2000/svg"
   xmlns:sodipodi="http://sodipodi.sourceforge.net/DTD/sodipodi-0.dtd"
   xmlns:inkscape="http://www.inkscape.org/namespaces/inkscape"
   width="59.844719mm"
   height="68.096909mm"
   viewBox="0 0 59.844719 68.096909"
   version="1.1"
   id="svg8"
   inkscape:version="1.0.2-2 (e86c870879, 2021-01-15)"
   sodipodi:docname="logoL4.svg">
  <defs
     id="defs2" />
  <sodipodi:namedview
     id="base"
     pagecolor="#ffffff"
     bordercolor="#666666"
     borderopacity="1.0"
     inkscape:pageopacity="0.0"
     inkscape:pageshadow="2"
     inkscape:zoom="0.98994949"
     inkscape:cx="-185.57579"
     inkscape:cy="306.18677"
     inkscape:document-units="mm"
     inkscape:current-layer="layer1"
     inkscape:document-rotation="0"
     showgrid="false"
     inkscape:window-width="1601"
     inkscape:window-height="1041"
     inkscape:window-x="156"
     inkscape:window-y="0"
     inkscape:window-maximized="0" />
  <metadata
     id="metadata5">
    <rdf:RDF>
      <cc:Work
         rdf:about="">
        <dc:format>image/svg+xml</dc:format>
        <dc:type
           rdf:resource="http://purl.org/dc/dcmitype/StillImage" />
        <dc:title />
      </cc:Work>
    </rdf:RDF>
  </metadata>
  <g
     inkscape:label="Capa 1"
     inkscape:groupmode="layer"
     id="layer1"
     transform="translate(-20.730818,-11.773168)">
    <path
       style="fill:#000000;stroke-width:0.264583"
       id="path24"
       d="" />
    <g
       id="g1063"
       transform="translate(-3.4745039,-78.309972)">
      <path
         style="fill:#ff6600;stroke-width:3.565;stroke-miterlimit:4;stroke-dasharray:none"
         id="path1045"
         d="m 58.975747,116.3893 c 0.593418,0.2721 1.180475,0.58234 1.839272,0.39942 0.445545,-0.18405 4.646806,-1.61494 3.473722,-3.38154 -0.381751,-0.37464 -0.906444,-0.44408 -1.41741,-0.38808 -2.443226,0.82839 -3.867292,1.25516 -4.176148,3.33066 -0.110575,0.77316 -0.02373,1.49038 0.377499,2.16247 0.386683,0.57137 0.943486,0.83149 1.597097,0.96775 0.8094,0.0872 1.606129,-0.13665 2.305928,-0.54136 1.256718,-0.72679 2.50358,-1.4705 3.755371,-2.20574 0.593633,-0.49066 1.100096,-1.04559 1.394743,-1.76101 0.306306,-0.63157 0.364906,-1.34523 0.422016,-2.03538 0.02283,-0.60511 0.08403,-1.217 -0.0024,-1.81846 -0.05738,-0.54992 -0.234598,-1.05135 -0.517946,-1.52259 -0.347742,-0.50143 -0.829857,-0.81541 -1.39633,-1.01462 -0.623409,-0.17627 -1.277417,-0.16085 -1.919351,-0.16824 -0.642845,-0.0227 -1.276229,-0.009 -1.907382,0.11767 -1.889048,0.62129 -3.684235,1.64787 -5.23041,2.88411 -0.569116,0.58808 -1.096216,1.21473 -1.60978,1.85098 -0.488101,0.69902 -1.047877,1.3494 -1.436966,2.11109 -0.438203,0.73408 -0.563554,1.57902 -0.639185,2.41565 -0.05673,0.74616 -0.06767,1.49479 -0.0643,2.24277 0.0056,0.89006 0.468119,1.49273 1.055446,2.11136 0.529392,0.56644 1.070465,1.1251 1.675006,1.61199 0.514662,0.38673 1.104942,0.61945 1.708751,0.8236 0.918895,0.35067 1.859848,0.19226 2.804109,0.0494 1.451832,-0.2623 2.815752,-0.8442 4.157504,-1.43753 1.854957,-0.90811 0.831612,-0.39133 4.464558,-2.51796 0.624247,-0.36542 1.144738,-0.85128 1.623777,-1.38635 0.589796,-0.61158 0.914262,-1.37286 1.240803,-2.14069 0.476962,-1.04909 0.640601,-2.18921 0.814684,-3.31768 0.16424,-1.24673 0.232365,-2.50333 0.265107,-3.75955 0.06683,-1.0823 -0.04956,-2.1541 -0.279167,-3.21014 -0.234254,-0.91469 -0.52514,-1.80271 -0.906351,-2.66531 -0.335839,-0.76556 -0.839513,-1.42141 -1.334953,-2.08616 -0.531955,-0.68785 -1.206876,-1.24356 -1.925082,-1.72562 -0.918797,-0.620341 -2.006973,-0.676761 -3.080673,-0.706531 -1.443231,0.0259 -2.795461,0.586391 -4.113377,1.122121 -2.388208,1.0747 -4.62789,2.4533 -6.826469,3.87125 -1.040741,0.74038 -2.054183,1.51125 -3.028384,2.33797 -0.891889,0.73431 -1.729129,1.51687 -2.533387,2.34544 -0.763983,0.78688 -1.423319,1.66799 -2.06529,2.55532 -0.728604,1.28518 -1.291757,2.63318 -1.748596,4.03505 -0.402554,1.10256 -0.627482,2.25111 -0.718195,3.41814 -0.08994,1.3265 0.533175,2.41666 1.251764,3.47447 0.55247,0.86349 1.288192,1.56289 2.108615,2.16497 0.744621,0.54966 1.575273,0.89293 2.463196,1.12684 1.217993,0.31253 2.467872,0.28467 3.70214,0.11164 1.706649,-0.35469 3.393836,-0.78529 5.113721,-1.07795 1.895327,-0.36068 3.817813,-0.52997 5.722421,-0.8262 1.188921,-0.23787 2.401573,-0.357 3.585065,-0.62316 0.780928,-0.17563 1.035825,-0.27202 1.816417,-0.51319 1.126075,-0.3528 2.212785,-0.82614 3.233042,-1.41927 4.084989,-2.3748 2.797693,-1.51549 4.776684,-2.87612 1.585987,-1.21503 2.584664,-2.92892 3.400642,-4.71552 0.93694,-1.99618 1.324168,-4.16529 1.580182,-6.33708 0.185015,-2.22667 0.197884,-4.46292 0.217384,-6.69581 -0.01389,-1.415671 0.08956,-2.864901 -0.235347,-4.257851 -0.06423,-0.27537 -0.161039,-0.5421 -0.241559,-0.81316 -0.430348,-1.26715 -1.07623,-2.4417 -1.846877,-3.53077 -0.837935,-1.09175 -2.069772,-1.57037 -3.337012,-1.97613 -1.472732,-0.47867 -3.000708,-0.54582 -4.533521,-0.46813 -2.47024,0.26674 -4.862833,0.97106 -7.253433,1.61708 -2.524776,0.66975 -4.992516,1.52587 -7.463417,2.36727 -3.050437,0.99587 -5.998911,2.2587 -8.930209,3.5559 -3.793474,1.67952 -7.433378,3.660251 -10.923957,5.904021 -1.824123,1.2629 -3.649325,2.53305 -5.238691,4.09028 -0.793092,0.77705 -1.672995,1.76717 -2.420998,2.5892 -1.962001,2.2987 -3.424693,4.94157 -4.643722,7.69165 -1.093371,2.55752 -1.846483,5.24307 -2.497305,7.94206 -0.374893,1.62712 -0.401374,3.33006 0.153873,4.92114 0.09581,0.27455 0.224745,0.53641 0.337118,0.80461 0.980344,1.54085 2.529917,2.60946 4.324812,2.98529 0.430068,0.0901 0.871766,0.11089 1.307649,0.16633 3.371134,0.009 6.636243,-1.03126 9.735545,-2.2752 0.386868,-0.18174 0.779172,-0.35232 1.160604,-0.54521 1.356983,-0.6862 2.676796,-1.4577 3.999942,-2.2061 2.268289,-1.28298 2.156042,-1.234 5.499745,-3.16861 0.294815,-0.18044 0.58963,-0.36088 0.884444,-0.54132 0.249669,-0.16741 0.494088,-0.34293 0.749009,-0.50223 0.245981,-0.15371 1.001932,-0.585 0.75289,-0.4363 -0.825425,0.49284 -1.679209,0.93996 -2.48208,1.46875 -0.272195,0.17928 0.587153,-0.28335 0.884592,-0.41661 0.322996,-0.14471 0.650939,-0.27812 0.976408,-0.41718 1.529832,-0.67334 3.133614,-1.10165 4.798407,-1.23124 0.907502,-0.0247 1.606751,0.17787 2.292871,0.76314 0.706199,0.60144 1.307767,1.31324 1.854721,2.05931 0.627573,1.00057 0.989915,2.10757 1.219224,3.25741 0.239511,1.22455 0.244568,2.45342 0.142626,3.68936 -0.16682,1.3457 -0.538945,2.65142 -0.822253,3.97441 -0.271428,1.16227 -0.327547,2.35449 -0.482793,3.53397 -0.183039,1.65227 -0.323369,3.30767 -0.535276,4.95684 -0.04632,0.88872 -0.299755,1.75178 -0.395015,2.63239 -0.03027,0.27986 -0.04094,0.77096 -0.05005,1.04961 0,0 3.500138,-1.76485 3.500138,-1.76485 v 0 c 0.0632,-1.21773 0.27925,-2.41748 0.412345,-3.62871 0.210159,-1.65264 0.327716,-3.31489 0.560359,-4.96461 0.169913,-1.16794 0.238466,-2.34951 0.489468,-3.50531 0.289568,-1.34491 0.67514,-2.67388 0.83715,-4.04275 0.07654,-1.26019 -0.0062,-2.51361 -0.236011,-3.75706 -0.230288,-1.20774 -0.599974,-2.38459 -1.261512,-3.43254 -0.567679,-0.76119 -1.168916,-1.50923 -1.881129,-2.14101 -0.749062,-0.67806 -1.480577,-0.97998 -2.50884,-0.98846 -1.705772,0.0842 -3.359161,0.48463 -4.927034,1.16742 -0.288901,0.11845 -1.565921,0.63144 -1.864921,0.79399 -2.202156,1.19716 -4.356289,2.43432 -6.458323,3.78889 0.731185,-0.4185 1.462636,-0.83653 2.193554,-1.25549 0.408128,-0.23394 -0.816427,0.46758 -1.225183,0.70042 -1.683294,0.95886 -3.364704,1.92951 -5.110769,2.77045 -3.045789,1.30015 -6.267485,2.38035 -9.610431,2.42084 -0.418173,-0.0419 -0.840993,-0.0507 -1.254518,-0.12566 -1.69634,-0.30752 -3.183398,-1.26248 -4.0984,-2.72298 -0.106748,-0.25339 -0.229862,-0.50048 -0.320245,-0.76015 -0.532755,-1.5306 -0.458207,-3.16449 -0.110124,-4.72589 0.606995,-2.68705 1.389561,-5.33779 2.50103,-7.8636 1.222806,-2.70487 2.672752,-5.30731 4.633516,-7.55653 0.83538,-0.91105 1.532191,-1.70234 2.432107,-2.55495 1.616531,-1.53155 3.455788,-2.79583 5.29256,-4.04389 0.445064,-0.27819 1.810567,-1.05702 1.335191,-0.83457 -0.708416,0.33152 -1.379981,0.74016 -2.037753,1.16335 -0.357465,0.22998 0.755668,-0.38944 1.134495,-0.58221 1.356019,-0.69005 2.726632,-1.34983 4.103166,-1.997951 2.89663,-1.28583 5.810806,-2.53835 8.82839,-3.51839 2.475716,-0.84292 4.940966,-1.72376 7.468706,-2.40248 2.356193,-0.63281 4.710244,-1.33029 7.138553,-1.62786 1.494843,-0.10354 2.986902,-0.0564 4.436917,0.36582 1.191585,0.35606 2.36856,0.77576 3.166139,1.7869 0.766297,1.03636 1.412087,2.16065 1.825932,3.3866 0.07064,0.25913 0.155279,0.51485 0.211913,0.7774 0.296341,1.373821 0.219847,2.790221 0.239707,4.184231 0.0024,2.21739 2.11e-4,4.43985 -0.22238,6.64851 -0.26416,2.14178 -0.691316,4.26857 -1.636972,6.22682 -0.862949,1.74292 -1.879544,3.4067 -3.509089,4.5389 -1.635135,1.08271 -0.750565,0.47277 1.828173,-0.96871 0.233487,-0.13051 -0.455692,0.28072 -0.690388,0.40906 -0.802571,0.43885 -1.643843,0.81454 -2.515264,1.09362 -0.676492,0.21793 -1.089975,0.36563 -1.773142,0.53169 -1.188908,0.28899 -2.414191,0.40657 -3.610174,0.66117 -1.886526,0.31429 -3.79799,0.44099 -5.680074,0.79092 -1.714368,0.28565 -3.399907,0.69784 -5.095804,1.07193 -1.194641,0.19785 -2.402843,0.2896 -3.594513,0.002 -0.848071,-0.20154 -1.648769,-0.50169 -2.361287,-1.01775 -0.803547,-0.55857 -1.540266,-1.19122 -2.068081,-2.03009 -0.690327,-0.98765 -1.243755,-1.99296 -1.111419,-3.24221 0.116258,-1.13483 0.340187,-2.25035 0.731374,-3.32558 0.456925,-1.37674 1.028745,-2.71254 1.820587,-3.93391 0.643086,-0.87598 1.321655,-1.73101 2.08788,-2.5033 0.805069,-0.81583 1.662216,-1.56992 2.539664,-2.30709 0.976871,-0.81436 1.99498,-1.57349 3.045079,-2.29122 1.159415,-0.74613 3.534953,-2.09835 -1.787493,0.95667 -0.192781,0.11065 0.385641,-0.22121 0.580205,-0.3287 0.721844,-0.39878 0.585533,-0.31909 1.360937,-0.6896 1.281687,-0.54434 2.590607,-1.0888 3.989205,-1.22338 1.001731,-0.0142 2.040816,0.0144 2.925747,0.53989 0.693684,0.44541 1.335098,0.96305 1.85248,1.61078 0.484108,0.63908 0.959712,1.27474 1.282922,2.01556 0.380537,0.82852 0.673669,1.68685 0.896009,2.57225 0.200755,1.03486 0.290615,2.07843 0.232862,3.13346 -0.03048,1.23808 -0.08043,2.47865 -0.272177,3.70418 -0.187674,1.10987 -0.390779,2.22309 -0.889725,3.24358 -0.332282,0.73533 -0.70821,1.43933 -1.289891,2.01347 -0.357669,0.35395 -0.721595,0.67859 -1.140912,0.96 -0.163248,0.10956 -0.671396,0.40914 -0.499962,0.3129 4.324,-2.42739 3.471246,-1.96355 2.220259,-1.29342 -1.323134,0.59975 -2.66032,1.19312 -4.085289,1.50968 -0.882509,0.15278 -1.773179,0.3501 -2.648566,0.0674 -0.572167,-0.1754 -1.131586,-0.37772 -1.635366,-0.70825 -0.611063,-0.45135 -1.13297,-1.00821 -1.661067,-1.55106 -0.561621,-0.58315 -0.900515,-1.0167 -0.891429,-1.85863 0.0033,-0.73286 -0.0027,-1.46721 0.06817,-2.19757 0.100065,-0.80273 0.272344,-1.58319 0.714105,-2.27587 0.43647,-0.71564 0.946743,-1.38229 1.461027,-2.04332 0.521507,-0.61559 1.020937,-1.26276 1.655513,-1.76822 1.273324,-0.8869 0.283023,-0.1845 -2.794489,1.5652 -0.09902,0.0563 0.191624,-0.12348 0.291071,-0.17903 0.300842,-0.16804 0.299124,-0.14548 0.616572,-0.27733 0.102623,-0.0426 0.203914,-0.0884 0.305871,-0.13258 0.608169,-0.18259 1.21788,-0.23329 1.852475,-0.20007 0.614579,7.9e-4 1.234757,-0.012 1.843352,0.0857 0.504677,0.11804 0.925984,0.33461 1.238171,0.76459 0.250348,0.42573 0.395195,0.88135 0.439388,1.37536 0.04875,0.57865 0.0084,1.16208 -0.02503,1.74075 -0.06577,0.66129 -0.164732,1.31981 -0.487897,1.91192 -0.348075,0.63087 -0.863401,1.1388 -1.452221,1.55087 0.986975,-0.56217 1.971897,-1.12796 2.960926,-1.68651 0.142777,-0.0806 -0.277837,0.17467 -0.422058,0.25269 -0.532098,0.28786 -1.089329,0.48619 -1.701088,0.48089 -0.56151,-0.07 -1.068631,-0.19211 -1.41419,-0.68314 -0.368726,-0.58487 -0.36775,-1.23797 -0.238753,-1.9044 0.06308,-0.25714 0.121114,-0.49716 0.300623,-0.70218 0.05052,-0.0577 0.236281,-0.19301 0.169129,-0.15597 -2.946207,1.62514 -4.195781,2.57805 -2.999105,1.67776 0.361657,-0.18327 0.763315,-0.17519 1.135809,-0.009 0.194863,0.22481 -0.01844,0.53086 -0.183512,0.71215 1.074256,-0.61738 2.148509,-1.23476 3.222765,-1.85214 -0.517097,0.51749 -1.065154,0.1973 -1.623814,-0.10206 0,0 -3.301913,2.20045 -3.301913,2.20045 z" />
      <path
         style="fill:#ff6600;stroke-width:3.565;stroke-miterlimit:4;stroke-dasharray:none"
         id="path1059"
         d="m 61.090246,154.64741 c -0.497163,0.52625 -0.991251,1.08532 -1.351003,1.71698 -0.303392,0.59182 -0.09455,1.11507 0.366546,1.53576 0.281554,0.18285 0.733465,0.39227 1.073497,0.20919 3.487589,-1.87774 2.663777,-1.10971 3.859837,-2.27579 0.435189,-0.46626 0.630822,-1.0324 0.820351,-1.62471 0.167145,-0.60371 0.309838,-1.23031 0.261056,-1.85907 -0.136845,-0.57168 -0.595553,-0.77043 -1.124177,-0.86744 -1.949709,-0.2377 -3.061314,1.09889 -4.898406,2.15055 -0.409128,0.31344 -0.688417,0.69249 -0.914974,1.15351 -0.309256,0.47907 -0.429924,1.0274 -0.501155,1.58428 -0.08528,0.61845 -0.04807,0.99084 0.41924,1.42614 0.285337,0.19506 0.135832,0.10731 0.448921,0.26256 0,0 3.302251,-2.20137 3.302251,-2.20137 v 0 c -0.265324,-0.092 -0.139536,-0.0374 -0.37837,-0.16139 -0.413506,-0.32346 -0.288443,-0.57969 -0.233219,-1.07113 0.09564,-0.52213 0.270216,-1.00903 0.564763,-1.45516 0.261385,-0.39824 0.578525,-0.73043 0.995411,-0.97149 -1.072767,0.60831 -2.145533,1.21661 -3.218299,1.82492 0.224125,-0.10544 0.423261,-0.2379 0.675952,-0.26197 0.05611,-0.005 0.436544,0.01 0.497385,0.0116 0.327152,0.0229 0.76563,-0.006 0.839279,0.39303 0.0037,0.58719 -0.135607,1.16632 -0.316838,1.72208 -0.195337,0.5455 -0.447114,1.0541 -0.913607,1.42236 -1.242856,0.82338 -0.408511,0.26241 2.944318,-1.63242 0.0756,-0.0427 -0.150455,0.0877 -0.230399,0.12163 -0.21517,0.0913 -0.401013,0.10243 -0.609706,-0.009 -0.410154,-0.27719 -0.367197,-0.62929 -0.108659,-1.02337 0.410639,-0.59607 0.884243,-1.14568 1.38103,-1.67128 0,0 -3.651025,1.55123 -3.651025,1.55123 z" />
    </g>
  </g>
</svg>
