<?xml version="1.0" encoding="UTF-8" standalone="no"?>
<svg
   xmlns:dc="http://purl.org/dc/elements/1.1/"
   xmlns:cc="http://creativecommons.org/ns#"
   xmlns:rdf="http://www.w3.org/1999/02/22-rdf-syntax-ns#"
   xmlns:svg="http://www.w3.org/2000/svg"
   xmlns="http://www.w3.org/2000/svg"
   xmlns:sodipodi="http://sodipodi.sourceforge.net/DTD/sodipodi-0.dtd"
   xmlns:inkscape="http://www.inkscape.org/namespaces/inkscape"
   width="40.556446mm"
   height="58.693443mm"
   viewBox="0 0 40.556446 58.693443"
   version="1.1"
   id="svg8"
   inkscape:version="1.0.2-2 (e86c870879, 2021-01-15)"
   sodipodi:docname="logo.svg">
  <defs
     id="defs2" />
  <sodipodi:namedview
     id="base"
     pagecolor="#ffffff"
     bordercolor="#666666"
     borderopacity="1.0"
     inkscape:pageopacity="0.0"
     inkscape:pageshadow="2"
     inkscape:zoom="0.98994949"
     inkscape:cx="106.08049"
     inkscape:cy="208.35381"
     inkscape:document-units="mm"
     inkscape:current-layer="layer1"
     inkscape:document-rotation="0"
     showgrid="false"
     inkscape:window-width="1601"
     inkscape:window-height="1041"
     inkscape:window-x="156"
     inkscape:window-y="0"
     inkscape:window-maximized="0" />
  <metadata
     id="metadata5">
    <rdf:RDF>
      <cc:Work
         rdf:about="">
        <dc:format>image/svg+xml</dc:format>
        <dc:type
           rdf:resource="http://purl.org/dc/dcmitype/StillImage" />
        <dc:title />
      </cc:Work>
    </rdf:RDF>
  </metadata>
  <g
     inkscape:label="Capa 1"
     inkscape:groupmode="layer"
     id="layer1"
     transform="translate(-53.677362,-37.658138)">
    <path
       style="fill:#000000;stroke-width:0.264583"
       id="path24"
       d="" />
    <g
       id="g898">
      <path
         style="stroke-width:3.565;stroke-miterlimit:4;stroke-dasharray:none"
         id="path892"
         d="m 82.166221,58.900938 c 0.217191,-0.444934 0.607219,-1.056471 0.405688,-1.579214 -0.03717,-0.09642 -0.110289,-0.174791 -0.165433,-0.262186 -0.199859,-0.202311 -0.751851,-0.49204 -1.045903,-0.333801 -3.574513,1.923579 -2.883607,0.918634 -3.781571,2.343473 -0.324376,0.56683 -0.425405,1.206066 -0.481028,1.846432 -0.06887,0.542023 0.125383,1.005427 0.518184,1.369324 0.447532,0.313915 0.993259,0.327854 1.519565,0.348869 0.610193,0.0308 1.212567,0.01844 1.81165,-0.104076 1.776288,-0.684226 3.458593,-1.734648 4.899996,-2.985241 0.644115,-0.420211 1.146669,-0.998707 1.661064,-1.560825 0.569976,-0.596026 0.975421,-1.31835 1.485191,-1.963856 0.61513,-0.872149 1.293961,-1.697649 1.921254,-2.560262 0.628147,-0.676674 1.104254,-1.470424 1.603584,-2.242132 0.453654,-0.889804 0.977505,-1.747972 1.387319,-2.659507 0.301635,-0.788323 0.30453,-1.654421 0.324051,-2.488239 0.03044,-0.936985 -0.110808,-1.884445 -0.531543,-2.725577 -0.444997,-0.758396 -1.126366,-1.320911 -1.808694,-1.856747 -0.908172,-0.700519 -1.893811,-1.289283 -2.82769,-1.954454 -0.716597,-0.577664 -1.443759,-1.101905 -2.314157,-1.412338 -1.175874,-0.401616 -2.415225,-0.417906 -3.643246,-0.457721 -1.606661,-0.03703 -3.204705,0.150043 -4.796753,0.340776 -1.611982,0.214659 -3.234333,0.368649 -4.836779,0.648319 -1.140608,0.16602 -2.189215,0.60615 -3.204834,1.130697 -2.292279,1.239371 -4.570079,2.514189 -6.757861,3.931734 -1.21612,0.921311 -2.265807,2.048315 -3.28218,3.181271 -1.073544,1.19266 -2.156589,2.371616 -3.105396,3.667461 -0.831868,1.332828 -1.609614,2.701197 -2.217123,4.151402 -0.715558,1.645063 -1.04376,3.395959 -1.208858,5.170803 -0.100205,1.53599 0.246468,3.02751 0.705501,4.478877 0.466595,1.09075 1.057595,2.122141 1.640401,3.153524 0.592256,1.076922 1.330431,2.014664 2.321634,2.74153 0.917593,0.599959 1.946928,0.984933 3.006352,1.244954 0.758412,0.14753 1.512784,0.307131 2.280036,0.401622 1.11505,0.103854 2.235068,-0.154837 3.325051,-0.366088 1.22868,-0.262189 2.435812,-0.591622 3.683082,-0.755745 1.034526,-0.119198 1.865815,-0.20039 2.876944,0.08258 0.937903,0.337733 1.721464,0.953387 2.47361,1.588654 0.829713,0.769678 1.597279,1.603975 2.338208,2.45854 0.705763,0.799092 1.421797,1.580467 2.018009,2.466342 0.540689,0.76218 0.806852,1.63715 1.020365,2.533899 0.210349,0.761206 0.192456,1.518224 0.108673,2.292676 -0.17711,0.822867 -0.502412,1.60688 -0.791657,2.395608 -0.342083,0.692569 -0.637739,1.40334 -0.910575,2.126391 -0.197474,0.65083 -0.379531,1.307081 -0.461007,1.983351 0,0 3.541377,-1.738289 3.541377,-1.738289 v 0 c 0.118012,-0.647523 0.28489,-1.286854 0.502808,-1.908167 0.280591,-0.716867 0.594024,-1.417275 0.89348,-2.12576 0.296354,-0.815563 0.638482,-1.630501 0.76254,-2.493778 0.06493,-0.810995 0.03263,-1.609225 -0.188177,-2.398908 -0.233633,-0.941208 -0.52315,-1.850393 -1.091568,-2.652379 -0.602589,-0.902777 -1.337704,-1.689238 -2.057839,-2.498754 -0.752359,-0.870334 -1.519904,-1.727486 -2.363743,-2.511645 -0.781907,-0.676576 -1.583618,-1.328594 -2.546937,-1.735735 -0.19413,-0.06189 -0.723313,-0.237485 -0.918464,-0.270809 -0.683197,-0.116666 -1.389301,0.05853 -2.0725,0.07065 -1.265155,0.143674 -2.486607,0.435176 -3.72019,0.744792 -1.045654,0.224872 -2.129554,0.444148 -3.200609,0.424727 -0.766529,-0.07015 -1.514924,-0.22421 -2.272559,-0.352798 -1.031682,-0.206168 -2.033153,-0.551831 -2.932631,-1.107104 -0.967896,-0.659405 -1.680702,-1.562462 -2.2445,-2.585905 -0.564507,-1.012351 -1.126043,-2.029386 -1.592638,-3.091534 -0.462971,-1.396386 -0.810681,-2.830635 -0.669708,-4.31664 0.184687,-1.739972 0.518517,-3.456051 1.254284,-5.057873 0.651335,-1.417339 1.406329,-2.789171 2.278845,-4.083256 0.957961,-1.26945 2.033688,-2.438591 3.095371,-3.621244 1.034677,-1.118701 2.09567,-2.240465 3.358706,-3.105423 1.439045,-0.940546 0.661683,-0.416533 -2.293451,1.252474 -0.188426,0.106419 0.375711,-0.214839 0.563602,-0.322199 0.828524,-0.473411 0.348832,-0.205419 1.207887,-0.669673 0.201734,-0.109022 0.403161,-0.21861 0.604742,-0.327914 0.985329,-0.555572 2.020612,-1.028727 3.141594,-1.23239 1.593066,-0.331845 3.221643,-0.461184 4.832847,-0.678399 1.583809,-0.195578 3.172666,-0.393179 4.770877,-0.396457 1.180586,0.04361 2.377704,0.05802 3.515362,0.415621 0.896678,0.255169 1.545897,0.722465 2.27483,1.294794 0.929954,0.655042 1.90142,1.25055 2.797714,1.952445 0.640056,0.493715 1.287701,1.009025 1.713392,1.708483 0.390726,0.789554 0.490894,1.676657 0.445955,2.550864 -0.03264,0.796763 -0.05791,1.613887 -0.401206,2.349703 -0.423852,0.88581 -0.890688,1.755741 -1.393087,2.598762 -0.509678,0.764643 -1.017043,1.529175 -1.619316,2.225831 -0.638578,0.854453 -1.27979,1.707266 -1.928141,2.554264 -0.48999,0.65242 -0.918085,1.354843 -1.501949,1.931754 -0.522494,0.555736 -1.07451,1.07184 -1.696271,1.516782 -0.151786,0.11688 -0.385783,0.296781 -0.534982,0.412875 -0.08922,0.06943 -0.36603,0.263665 -0.267023,0.209095 5.624537,-3.100118 3.851852,-2.266273 2.708516,-1.526667 -0.565396,0.203086 -1.144942,0.23056 -1.742194,0.200414 -0.453887,-0.0078 -0.926803,0.0084 -1.360088,-0.145638 -0.357063,-0.227388 -0.393631,-0.6233 -0.339709,-1.016423 0.07141,-0.583652 0.189347,-1.167045 0.581618,-1.628233 1.163817,-0.96366 0.21219,-0.154281 -3.004537,1.625674 -0.06816,0.03772 0.121055,-0.104073 0.194842,-0.129058 0.167963,-0.05687 0.409858,-0.0314 0.563541,0.04817 0.284657,0.346908 -0.255791,1.099532 -0.464862,1.381009 0,0 3.651025,-1.551231 3.651025,-1.551231 z" />
      <path
         style="stroke-width:3.565;stroke-miterlimit:4;stroke-dasharray:none"
         id="path894"
         d="m 82.700759,93.913244 c 0.358587,-0.537456 0.593148,-1.11366 0.08499,-1.625171 -2.10043,-0.59644 -3.937828,1.447091 -3.99201,3.253452 0.485418,2.335831 4.188833,-1.107107 4.463735,-1.262314 0.424535,-0.419817 0.615881,-0.911768 0.737352,-1.488287 0.10636,-0.139798 -0.02532,-0.503473 0.102859,-0.636137 0.01942,-0.02011 0.05628,0.01982 0.08306,0.01177 0.03506,-0.01053 0.05969,-0.04238 0.08954,-0.06357 0,0 -3.676367,1.546408 -3.676367,1.546408 v 0 c -0.153829,0.247187 -0.05671,0.578445 -0.17267,0.851302 -0.15299,0.500452 -0.398992,0.93713 -0.867061,1.206844 1.074251,-0.601879 2.14358,-1.212622 3.22275,-1.805638 0.01204,-0.0066 -0.21962,0.175797 -0.252169,0.18361 -0.176358,0.04232 -0.178869,-0.221779 -0.185635,-0.315767 0.03623,-0.261205 0.08492,-0.528447 0.224399,-0.758759 0.03861,-0.06376 0.20819,-0.207804 0.142737,-0.172138 -3.300322,1.798439 -3.463287,3.114313 -3.230509,1.680745 0.005,-0.03554 -0.01757,-0.09137 0.01492,-0.10663 0.08636,-0.04055 -0.01217,0.466696 -0.240496,0.797965 -0.06114,0.0887 -0.133627,0.169023 -0.200443,0.253537 0,0 3.651025,-1.551231 3.651025,-1.551231 z" />
    </g>
  </g>
</svg>
