<?xml version="1.0" encoding="UTF-8" standalone="no"?>
<svg
   xmlns:dc="http://purl.org/dc/elements/1.1/"
   xmlns:cc="http://creativecommons.org/ns#"
   xmlns:rdf="http://www.w3.org/1999/02/22-rdf-syntax-ns#"
   xmlns:svg="http://www.w3.org/2000/svg"
   xmlns="http://www.w3.org/2000/svg"
   xmlns:sodipodi="http://sodipodi.sourceforge.net/DTD/sodipodi-0.dtd"
   xmlns:inkscape="http://www.inkscape.org/namespaces/inkscape"
   width="35.478897mm"
   height="54.33548mm"
   viewBox="0 0 35.478897 54.33548"
   version="1.1"
   id="svg8"
   inkscape:version="1.0.2-2 (e86c870879, 2021-01-15)"
   sodipodi:docname="logoL1.svg">
  <defs
     id="defs2" />
  <sodipodi:namedview
     id="base"
     pagecolor="#ffffff"
     bordercolor="#666666"
     borderopacity="1.0"
     inkscape:pageopacity="0.0"
     inkscape:pageshadow="2"
     inkscape:zoom="0.98994949"
     inkscape:cx="-358.28404"
     inkscape:cy="117.58111"
     inkscape:document-units="mm"
     inkscape:current-layer="layer1"
     inkscape:document-rotation="0"
     showgrid="false"
     inkscape:window-width="1601"
     inkscape:window-height="1041"
     inkscape:window-x="156"
     inkscape:window-y="0"
     inkscape:window-maximized="0" />
  <metadata
     id="metadata5">
    <rdf:RDF>
      <cc:Work
         rdf:about="">
        <dc:format>image/svg+xml</dc:format>
        <dc:type
           rdf:resource="http://purl.org/dc/dcmitype/StillImage" />
        <dc:title />
      </cc:Work>
    </rdf:RDF>
  </metadata>
  <g
     inkscape:label="Capa 1"
     inkscape:groupmode="layer"
     id="layer1"
     transform="translate(-66.426544,-61.67508)">
    <path
       style="fill:#000000;stroke-width:0.264583"
       id="path24"
       d="" />
    <g
       id="g1024">
      <path
         style="fill:#ff6600;stroke-width:3.565;stroke-miterlimit:4;stroke-dasharray:none"
         id="path1006"
         d="m 84.112393,78.693649 c 0.259551,0.06388 0.461674,0.125789 0.731715,0.141476 0.135388,0.0079 0.576255,-0.0056 0.712671,-0.07865 3.602641,-1.929588 2.8247,-0.969608 3.841295,-2.307794 0.278337,-0.503211 0.297786,-1.07924 0.313262,-1.640139 -0.0363,-0.573442 -0.401529,-0.892151 -0.924375,-1.043612 -1.709407,-0.0314 -3.451439,1.15582 -4.570727,2.307993 -0.412467,0.448429 -0.660186,1.038561 -0.829514,1.618985 -0.244015,0.466669 -0.343411,0.97336 -0.396364,1.491562 0,0 3.557201,-1.756169 3.557201,-1.756169 v 0 c 0.07609,-0.493366 0.233526,-0.956651 0.420928,-1.418693 0.200647,-0.537237 0.465582,-1.065128 0.933442,-1.418646 1.207791,-0.758256 0.687112,-0.427656 -3.074829,1.731661 -0.247864,0.142272 0.909889,-0.457306 0.72068,-0.249306 0.382773,-0.06666 0.63554,0.120681 0.624216,0.520552 -0.02905,0.492331 -0.06323,1.00404 -0.437123,1.368636 -1.181365,0.817933 -0.5665,0.38254 2.946606,-1.627206 0.09268,-0.05302 -0.189688,0.100399 -0.291256,0.133337 -0.33587,0.108924 -0.672312,0.104965 -1.002538,-0.01709 0,0 -3.27529,2.243095 -3.27529,2.243095 z" />
      <path
         style="fill:#ff6600;stroke-width:3.565;stroke-miterlimit:4;stroke-dasharray:none"
         id="path1008"
         d="m 83.669287,80.326189 c 0.570706,0.85883 1.242555,1.643587 2.014334,2.326421 0.666567,0.503684 1.445725,0.770403 2.278581,0.735086 0.770249,-0.117985 1.501709,-0.446272 2.175089,-0.830903 1.271643,-0.726352 2.537235,-1.463246 3.805854,-2.194869 0.878927,-0.48604 1.569281,-1.194864 2.248866,-1.918279 0.755644,-0.743691 1.418944,-1.559772 2.065406,-2.397189 0.682321,-0.912458 1.353791,-1.814854 1.893963,-2.819545 0.69138,-1.243444 1.09953,-2.616804 1.41219,-3.997413 0.24652,-1.209283 0.4422,-2.446671 0.28598,-3.678364 -0.10816,-0.839669 -0.39203,-1.387682 -0.87007,-2.0603 -0.62829,-0.760018 -1.567199,-1.168471 -2.483533,-1.468464 -1.009211,-0.2667 -2.057694,-0.356746 -3.098853,-0.346517 -0.985221,0.05994 -1.892181,0.479192 -2.788637,0.855948 -0.834623,0.350769 -1.305875,0.557443 -2.143122,0.919803 -1.92926,0.79034 -3.805592,1.693847 -5.66714,2.62971 -2.759305,1.376225 -5.40072,2.90881 -8.070934,4.458147 -1.163823,0.725125 -2.286651,1.518587 -3.248999,2.501043 -0.664527,0.67841 -1.155263,1.284491 -1.770906,2.010412 -1.485115,1.802437 -2.651266,3.826169 -3.810366,5.843892 -0.973579,1.747015 -1.192958,3.735514 -1.375478,5.691412 -0.03939,0.950275 -0.229357,1.951911 0.07359,2.883284 0.155059,0.476708 0.302754,0.614788 0.591121,1.01114 1.013696,0.943154 2.411661,1.268555 3.735644,1.519557 1.381152,0.273841 2.778808,0.244131 4.175985,0.175652 1.117071,-0.06318 2.235171,-0.107371 3.353771,-0.130802 1.050496,-0.05015 2.089124,0.104851 3.105848,0.355182 0.906325,0.213592 1.735514,0.655529 2.470018,1.219864 0.667909,0.617122 1.023729,1.447652 1.28969,2.298573 0.348131,1.280236 0.470361,2.596509 0.550752,3.915679 0.05505,1.135871 0.05081,2.273271 0.04966,3.410091 2.1e-5,0.75912 -0.149641,1.50818 -0.211984,2.264 -0.06203,0.70171 -0.198652,1.39445 -0.272386,2.09621 -0.0065,0.40008 -0.07476,0.78606 -0.153043,1.17661 0,0 3.56131,-1.73299 3.56131,-1.73299 v 0 c 0.06822,-0.39801 0.107045,-0.79711 0.133173,-1.20006 0.07882,-0.70143 0.216958,-1.39495 0.264154,-2.09964 0.07664,-0.76201 0.208111,-1.52273 0.182642,-2.29084 -0.0084,-1.13553 -0.04317,-2.270612 -0.11,-3.404307 -0.08171,-1.352941 -0.192813,-2.708262 -0.560229,-4.019391 -0.295791,-0.921427 -0.673738,-1.829041 -1.387782,-2.509835 -0.751091,-0.620371 -1.643824,-1.095227 -2.588321,-1.338675 -1.024334,-0.281199 -2.077312,-0.492535 -3.144954,-0.460981 -1.133094,0.02824 -2.264841,0.08581 -3.396562,0.147759 -1.379593,0.07763 -2.759802,0.144968 -4.129712,-0.09843 -1.236831,-0.210725 -2.550959,-0.483621 -3.547586,-1.290587 -0.100989,-0.133403 -0.217194,-0.256551 -0.302964,-0.400212 -0.570211,-0.955079 -0.311631,-2.170303 -0.285649,-3.212904 0.176403,-1.922976 0.451485,-3.848907 1.446681,-5.544396 1.122463,-1.9997 2.287955,-3.985567 3.770733,-5.745827 0.671044,-0.767493 1.088406,-1.280462 1.821624,-1.982131 0.994942,-0.952132 2.140816,-1.724446 3.310726,-2.442403 -0.825158,0.469826 -1.65613,0.929584 -2.475478,1.409472 -0.266309,0.155975 0.542713,-0.294063 0.815975,-0.43751 0.786868,-0.413059 1.577879,-0.812972 2.360628,-1.233709 0.25368,-0.136359 0.510408,-0.266968 0.765614,-0.40045 1.875346,-0.941956 3.744217,-1.896673 5.694405,-2.679374 1.968177,-0.852258 0.21636,-0.09819 2.116794,-0.903902 0.701495,-0.297407 1.414658,-0.635717 2.157399,-0.825225 0.155644,-0.03971 0.316243,-0.05654 0.474366,-0.08482 1.011907,-0.07853 2.037548,0.02651 3.029887,0.231878 0.845724,0.239464 1.733663,0.583523 2.319377,1.266875 0.408117,0.573972 0.721561,1.158883 0.794967,1.877436 0.133953,1.186159 -0.06721,2.374064 -0.309708,3.535267 -0.342091,1.353889 -0.753507,2.697729 -1.472322,3.906187 -0.572524,0.973016 -1.254016,1.867874 -1.929209,2.771595 -0.650716,0.830093 -1.350203,1.614784 -2.091965,2.365116 -0.684107,0.703143 -1.414439,1.347086 -2.285738,1.8138 0.969385,-0.55799 1.938501,-1.116449 2.908157,-1.673968 0.147465,-0.08479 -0.292026,0.174728 -0.441584,0.255765 -0.511324,0.277055 -1.054254,0.54035 -1.621629,0.671229 -0.747088,0.184954 -1.471909,-0.03458 -2.110507,-0.447881 -0.761029,-0.622525 -1.417661,-1.376495 -1.912464,-2.228244 0,0 -3.435141,1.981239 -3.435141,1.981239 z" />
      <path
         style="fill:#ff6600;stroke-width:3.565;stroke-miterlimit:4;stroke-dasharray:none"
         id="path1010"
         d="m 84.975461,106.16588 c -0.28729,1.13203 -0.825416,2.17215 -1.385187,3.18887 -0.369691,0.77679 -0.852275,1.48662 -1.320191,2.20382 -0.402204,0.42114 -0.597699,0.7081 -0.104553,1.1499 0.539737,0.25921 1.155213,0.14793 1.726348,0.0787 0.699535,-0.0553 1.352553,-0.33217 2.00455,-0.57258 0.591463,-0.23719 1.215019,-0.32991 1.845902,-0.37682 0.334246,-0.0179 0.668436,-0.0243 1.00262,-0.0433 0,0 3.174627,-2.36209 3.174627,-2.36209 v 0 c -0.330607,0.0578 -0.655309,0.0673 -0.991385,0.062 -0.649142,0.0283 -1.300795,0.067 -1.918703,0.28861 -0.332275,0.11843 -0.664118,0.23537 -0.996096,0.3532 -0.208161,0.0739 -0.399714,0.19532 -0.613788,0.24975 -0.111091,0.0282 -0.227706,0.0265 -0.341556,0.0398 -0.515829,0.0671 -1.027684,0.16991 -1.549339,0.11121 -0.02175,0.007 -0.07397,0.0541 -0.05637,0.0394 0.184724,-0.1543 0.270074,-0.44045 0.44109,-0.60729 0.465415,-0.71194 0.87911,-1.45591 1.263353,-2.21455 0.556004,-1.05068 1.04602,-2.13439 1.401125,-3.27116 0,0 -3.58245,1.68245 -3.58245,1.68245 z" />
      <path
         style="fill:#ff6600;stroke-width:3.565;stroke-miterlimit:4;stroke-dasharray:none"
         id="path1012"
         d="m 85.867956,100.42128 c -0.137171,1.42288 -0.299355,2.84321 -0.4045,4.26907 -0.04923,0.96415 -0.202605,1.91848 -0.29609,2.8787 -0.101603,0.69285 -0.06065,1.1996 0.155427,1.85937 0.157903,0.52774 0.374859,1.03833 0.682942,1.4958 0.397359,0.54599 1.029502,0.69784 1.659215,0.80602 0.108853,0.0128 0.217631,0.0262 0.326562,0.0384 0.0819,0.009 0.163968,0.0166 0.245909,0.0253 0.474091,0.0503 -0.29169,-0.10721 -0.05891,-0.27327 1.035627,-0.73879 2.181987,-1.30854 3.272978,-1.9628 -0.513935,0.14661 -1.036108,0.27132 -1.563955,0.35888 -0.382688,0.0562 -0.769085,0.0816 -1.155589,0.0893 -0.167983,0.003 -0.152929,-0.0508 -0.153138,0.0457 0.06372,0.0848 0.107418,0.18925 0.191156,0.25434 0.04503,0.035 0.530032,-0.57683 0.579319,-0.64422 0.14479,-0.28168 0.08112,-0.13539 0.189915,-0.43932 0,0 -3.611747,1.65012 -3.611747,1.65012 v 0 c -0.139727,0.24209 -0.06218,0.12652 -0.23245,0.34683 -0.06179,0.068 -0.595805,0.64721 -0.587613,0.69564 0.02035,0.12035 0.09058,0.2267 0.135861,0.34004 0.04063,0.0344 0.07128,0.0867 0.121901,0.10305 0.05289,0.0171 0.110956,-0.007 0.166479,-0.01 0.395004,-0.0191 0.791323,-0.0165 1.184939,-0.0588 0.537482,-0.0638 1.058153,-0.19718 1.586039,-0.29061 1.184053,-0.68422 2.428322,-1.27348 3.552156,-2.05267 0.07705,-0.0534 -0.137615,-0.41029 -0.234064,-0.45548 -0.123317,-0.0578 -0.272269,-0.008 -0.408204,-0.0165 -0.105582,-0.006 -0.211019,-0.0148 -0.316529,-0.0222 -0.523166,-0.0589 -1.117817,-0.0984 -1.46862,-0.54165 -0.300411,-0.41625 -0.483746,-0.90021 -0.632537,-1.38873 -0.176686,-0.56676 -0.170492,-1.12235 -0.09558,-1.71113 0.08481,-0.95601 0.218295,-1.90827 0.254067,-2.86802 0.09326,-1.43272 0.225734,-2.86279 0.443624,-4.282573 0,0 -3.528957,1.761293 -3.528957,1.761293 z" />
      <path
         style="fill:#ff6600;stroke-width:3.565;stroke-miterlimit:4;stroke-dasharray:none"
         id="path1014"
         d="m 83.391678,114.45653 c 0.753528,-0.35105 1.561518,-0.53662 2.378319,-0.66461 0.811098,-0.11302 1.631664,-0.11506 2.448914,-0.1194 1.937441,0.0264 4.086304,-0.87301 5.219666,-2.50317 0.02664,-0.0789 0.05328,-0.15782 0.07992,-0.23672 0,0 -3.622963,1.63206 -3.622963,1.63206 v 0 c -0.038,0.0453 -0.07599,0.0906 -0.113993,0.13585 -1.147445,0.89129 -0.302514,0.21991 2.967815,-1.6364 0.0904,-0.0513 -0.178186,0.10884 -0.274421,0.14813 -0.340629,0.13909 -0.710639,0.15884 -1.073097,0.1455 -0.824978,0.003 -1.653251,-0.0121 -2.474944,0.0717 -0.824637,0.10579 -1.646756,0.25592 -2.422112,0.56676 0,0 -3.113101,2.46033 -3.113101,2.46033 z" />
      <path
         style="fill:#ff6600;stroke-width:3.565;stroke-miterlimit:4;stroke-dasharray:none"
         id="path1016"
         d="m 87.914238,112.71667 c -0.761846,0.23105 -1.473115,0.5897 -2.234753,0.82354 -0.914098,0.2305 -1.881785,0.0972 -2.813481,0.0552 -0.757378,-0.038 -1.485934,-0.15414 -2.143551,-0.53963 -0.355092,-0.27195 -0.724479,-0.55195 -0.980167,-0.92385 -0.02439,-0.0548 -0.04879,-0.10968 -0.07318,-0.16453 0,0 -3.458731,1.95546 -3.458731,1.95546 v 0 c 0.03498,0.0735 0.06997,0.14704 0.104952,0.22056 0.284996,0.42549 0.688899,0.74078 1.083641,1.06118 0.06677,0.0415 0.51217,0.32076 0.569285,0.34628 0.538549,0.24068 1.155534,0.24755 1.727851,0.3265 0.592175,0.0251 1.183963,0.052 1.775368,0.0919 0.121898,0.008 0.594799,0.0514 0.747104,0.0391 0.111447,-0.009 0.219887,-0.0408 0.329829,-0.0611 0.771067,-0.19258 1.488096,-0.51101 2.216489,-0.82242 0,0 3.149343,-2.40817 3.149343,-2.40817 z" />
    </g>
  </g>
</svg>
