<?xml version="1.0" encoding="UTF-8" standalone="no"?>
<svg
   xmlns:dc="http://purl.org/dc/elements/1.1/"
   xmlns:cc="http://creativecommons.org/ns#"
   xmlns:rdf="http://www.w3.org/1999/02/22-rdf-syntax-ns#"
   xmlns:svg="http://www.w3.org/2000/svg"
   xmlns="http://www.w3.org/2000/svg"
   xmlns:sodipodi="http://sodipodi.sourceforge.net/DTD/sodipodi-0.dtd"
   xmlns:inkscape="http://www.inkscape.org/namespaces/inkscape"
   width="88.448402mm"
   height="29.288685mm"
   viewBox="0 0 88.448402 29.288685"
   version="1.1"
   id="svg8"
   inkscape:version="1.0.2-2 (e86c870879, 2021-01-15)"
   sodipodi:docname="noizArte.svg">
  <defs
     id="defs2" />
  <sodipodi:namedview
     id="base"
     pagecolor="#ffffff"
     bordercolor="#666666"
     borderopacity="1.0"
     inkscape:pageopacity="0.0"
     inkscape:pageshadow="2"
     inkscape:zoom="0.98994949"
     inkscape:cx="-211.6894"
     inkscape:cy="-51.066885"
     inkscape:document-units="mm"
     inkscape:current-layer="layer1"
     inkscape:document-rotation="0"
     showgrid="false"
     inkscape:window-width="1601"
     inkscape:window-height="1041"
     inkscape:window-x="156"
     inkscape:window-y="0"
     inkscape:window-maximized="0" />
  <metadata
     id="metadata5">
    <rdf:RDF>
      <cc:Work
         rdf:about="">
        <dc:format>image/svg+xml</dc:format>
        <dc:type
           rdf:resource="http://purl.org/dc/dcmitype/StillImage" />
        <dc:title />
      </cc:Work>
    </rdf:RDF>
  </metadata>
  <g
     inkscape:label="Capa 1"
     inkscape:groupmode="layer"
     id="layer1"
     transform="translate(-27.640045,-106.29653)">
    <g
       id="g287">
      <path
         style="stroke-width:3.565;stroke-miterlimit:4;stroke-dasharray:none"
         id="path966"
         d="m 27.640049,126.59764 c 0.0282,1.60123 0.121756,3.19998 0.195324,4.79957 0.04543,0.57108 0.114697,1.13984 0.184539,1.70831 0.0227,0.18476 0.007,0.38162 0.08058,0.55261 0.03249,0.0755 0.09148,0.13658 0.137215,0.20487 3.34014,-1.89512 3.541625,-1.05043 3.687442,-3.42187 0.128014,-0.67191 0.169818,-1.36551 0.474793,-1.98547 0.292414,-0.5183 0.575746,-1.06633 0.972063,-1.51613 0.415081,-0.36551 0.729107,-0.83143 1.187849,-1.14239 1.377977,-0.62192 -0.184972,0.0742 -2.951525,1.74357 -0.06734,0.0406 0.14858,-0.0573 0.226867,-0.0648 0.296609,-0.0283 0.578835,0.0925 0.844664,0.20103 0.675436,0.30521 1.097889,0.88152 1.530586,1.45401 0.461097,0.6225 0.759338,1.35742 0.976048,2.09737 0.238598,0.76272 0.363558,1.55187 0.432456,2.34601 0.07841,0.43518 0.02339,0.22548 0.161784,0.62993 0,0 3.469296,-1.91143 3.469296,-1.91143 v 0 c -0.110947,-0.33979 -0.0653,-0.15798 -0.128566,-0.54745 -0.09253,-0.81531 -0.246943,-1.62106 -0.474096,-2.41028 -0.242205,-0.7804 -0.569106,-1.55102 -1.044879,-2.21868 -0.466974,-0.61885 -0.922883,-1.25009 -1.626185,-1.62171 -1.978231,-1.0237 -2.983947,0.0831 -5.094819,1.78141 -0.40494,0.38781 -0.791115,0.80144 -1.15306,1.22908 -0.341942,0.51181 -0.678471,1.03444 -0.91367,1.60533 -0.229782,0.67864 -0.333819,1.38816 -0.428767,2.09686 -0.232908,2.18637 -1.333707,1.86919 3.140715,-0.62758 0.02545,0.0639 0.03179,0.13923 0.07635,0.19157 0.03527,0.0414 -0.03499,-0.10331 -0.04651,-0.1565 -0.142245,-0.65704 -0.188608,-1.33365 -0.27064,-1.99922 -0.09848,-1.60163 -0.22139,-3.20589 -0.126661,-4.81117 0,0 -3.519197,1.79312 -3.519197,1.79312 z" />
      <path
         style="stroke-width:3.565;stroke-miterlimit:4;stroke-dasharray:none"
         id="path968"
         d="m 42.954789,126.87147 c -0.344152,0.75611 -0.706472,1.50154 -0.948293,2.298 -0.184161,0.6752 -0.244089,1.35894 -0.07934,2.04044 0.286588,0.83176 0.894836,1.48477 1.570204,2.02452 0.636852,0.42946 1.351052,0.69643 2.12177,0.66521 2.112301,-0.53803 3.940813,-1.90752 5.378241,-3.50278 0.670166,-0.70011 1.199997,-1.50529 1.558777,-2.40373 0.213574,-0.65258 0.29995,-1.3522 0.227581,-2.03528 -0.03503,-0.69254 -0.393049,-1.12354 -0.87476,-1.58499 -0.545819,-0.48948 -1.153067,-0.86949 -1.853255,-1.08525 -0.501457,-0.0954 -1.116529,-0.26394 -1.598128,0.0117 -1.244529,0.71238 -2.466576,1.46334 -3.699865,2.19501 -0.574,0.56502 -1.13461,1.13219 -1.602941,1.78993 -0.179985,0.2705 -0.922271,1.19457 -0.894593,1.50024 0.01281,0.14129 0.116774,0.25858 0.175162,0.38788 0,0 3.455958,-1.9423 3.455958,-1.9423 v 0 c -0.121401,-0.34219 0.707467,-1.19782 0.885693,-1.50594 0.489815,-0.61415 1.035307,-1.18433 1.645571,-1.68055 -1.017482,0.57509 -2.029312,1.16029 -3.052445,1.72527 -0.09333,0.0515 0.166899,-0.13501 0.261524,-0.18412 0.367112,-0.19053 0.779921,-0.11439 1.16713,-0.0559 0.669073,0.14092 1.232818,0.46705 1.750478,0.91349 0.453208,0.43126 0.684814,0.69844 0.720339,1.34319 0.03619,0.63119 -0.06033,1.26546 -0.2951,1.8539 -0.390102,0.8518 -0.94242,1.60069 -1.595197,2.27253 -0.278101,0.29267 -0.415682,0.45114 -0.719971,0.71687 -0.119118,0.10403 -0.509177,0.37179 -0.369565,0.29751 5.425909,-2.88694 3.647308,-2.07882 2.495016,-1.40112 -0.689184,0.19631 -1.353989,-0.0443 -1.960576,-0.39153 -0.628618,-0.45284 -1.174266,-1.04235 -1.412465,-1.7942 -0.116998,-0.62336 -0.01598,-1.2479 0.16474,-1.85181 0.259297,-0.76713 0.592585,-1.51671 1.01553,-2.20765 0,0 -3.637222,1.59141 -3.637222,1.59141 z" />
      <path
         style="stroke-width:3.565;stroke-miterlimit:4;stroke-dasharray:none"
         id="path970"
         d="m 54.316912,124.6124 c -0.07548,0.92548 -0.149344,1.85036 -0.181903,2.77847 -0.01003,0.96479 -0.02572,1.9295 -0.03494,2.89429 -0.007,0.75215 0.145854,1.49795 0.290258,2.23346 0.120581,0.82646 0.405328,1.61269 0.692147,2.39254 0.661393,1.6979 1.664629,-0.17349 3.797755,-1.63824 0.101921,-0.07 0.01122,-0.24702 0.01683,-0.37053 0,0 -3.54615,1.74409 -3.54615,1.74409 v 0 c -0.02627,0.10019 -0.17399,0.34141 -0.0788,0.30057 1.174795,-0.50402 2.278237,-1.16035 3.420512,-1.73428 0.01791,-0.009 -0.03067,0.0258 -0.046,0.0388 -0.03845,-0.0854 -0.0769,-0.17079 -0.115345,-0.25618 -0.288687,-0.75823 -0.55068,-1.52586 -0.664525,-2.33322 -0.138099,-0.71394 -0.255897,-1.43801 -0.251698,-2.1672 -0.0059,-0.9582 -0.01397,-1.91704 0.02875,-2.87457 0.04029,-0.92367 0.09205,-1.84898 0.228557,-2.76424 0,0 -3.555436,1.75624 -3.555436,1.75624 z" />
      <path
         style="stroke-width:3.565;stroke-miterlimit:4;stroke-dasharray:none"
         id="path972"
         d="m 52.488904,117.15097 c -0.01593,0.73774 0.103303,1.43922 0.632335,1.97846 0.07431,0.0411 0.143023,0.0946 0.222933,0.12329 0.07353,0.0264 0.360873,0.067 0.442214,0.0217 0.542216,-0.30163 3.01788,-1.19763 3.827163,-2.40343 0.212006,-0.44817 0.289605,-0.95555 0.233646,-1.44603 -0.05424,-0.53414 -0.394396,-0.84496 -0.880245,-1.00899 -0.07637,-0.005 -0.152739,-0.01 -0.229108,-0.0145 0,0 -3.168182,2.40321 -3.168182,2.40321 v 0 c 0.04932,-0.0311 0.09865,-0.0623 0.147974,-0.0934 0.380614,-0.0573 0.58878,0.16771 0.603475,0.54064 0.0026,0.41886 -0.07911,0.8491 -0.368126,1.16844 -0.09636,0.0861 -0.409382,0.31259 -0.29637,0.24992 1.092663,-0.60597 2.169403,-1.24036 3.26209,-1.84628 0.05311,-0.0295 -0.08823,0.0853 -0.140906,0.1155 -0.05431,0.0312 -0.216996,0.0718 -0.283988,0.09 -0.536453,-0.35834 -0.484391,-1.10879 -0.471284,-1.67894 0,0 -3.533621,1.80047 -3.533621,1.80047 z" />
      <path
         style="stroke-width:3.565;stroke-miterlimit:4;stroke-dasharray:none"
         id="path974"
         d="m 60.97258,123.29173 c 1.116833,-0.1259 2.241264,-0.44223 3.370181,-0.33286 0.595283,0.18218 0.42881,0.56713 0.195786,1.00262 -0.403315,0.68331 -0.76658,1.39093 -1.177676,2.07278 -0.416931,0.84604 -0.922769,1.64596 -1.402265,2.45799 -0.479666,0.71927 -0.93154,1.45353 -1.375096,2.19511 -0.363095,0.64618 -0.680185,1.31701 -0.915961,2.02054 -0.170463,0.57841 -0.29809,1.13852 0.05628,1.66237 0.0956,0.0585 0.180369,0.14044 0.286803,0.17564 0.617601,0.20424 1.906315,-0.28128 2.518714,-0.44237 2.225175,-0.51896 1.982142,-0.83713 4.517546,-2.83651 0,0 -3.334025,2.16883 -3.334025,2.16883 v 0 c 1.125321,-0.73992 2.250641,-1.47984 3.375959,-2.21976 -0.108474,0.0599 -0.211148,0.1318 -0.325422,0.17973 -0.360558,0.15122 -0.764087,0.23866 -1.13984,0.3351 -0.821831,0.21827 -1.640864,0.46258 -2.477043,0.61312 -0.298881,-0.34436 0.01937,-0.93302 0.101762,-1.30877 0.255783,-0.67432 0.570423,-1.32344 0.935574,-1.94563 0.438285,-0.74362 0.922883,-1.45693 1.368724,-2.19595 0.469448,-0.81764 0.971992,-1.61604 1.402914,-2.45535 0.408164,-0.70361 0.81271,-1.41011 1.179115,-2.13637 0.209087,-0.66656 0.137509,-1.29807 -0.57073,-1.6085 -0.148894,-0.0306 -0.295082,-0.0807 -0.446685,-0.0917 -0.988878,-0.0717 -1.984529,0.27806 -2.966715,0.32693 0,0 -3.1779,2.36305 -3.1779,2.36305 z" />
      <path
         style="stroke-width:3.565;stroke-miterlimit:4;stroke-dasharray:none"
         id="path976"
         d="m 59.425511,127.79762 c 1.031563,-0.31897 2.042761,-0.70049 3.079028,-1.00393 0.998117,-0.23058 2.017694,-0.3658 3.030765,-0.51555 0.824357,-0.10899 0.425037,-0.0513 1.1982,-0.17149 0,0 3.125237,-2.35445 3.125237,-2.35445 v 0 c -0.772186,0.1504 -0.371851,0.0859 -1.201812,0.18851 -1.012629,0.14409 -2.02742,0.27649 -3.034215,0.45426 -1.03878,0.28026 -2.037186,0.68156 -3.06846,0.9871 0,0 -3.128743,2.41555 -3.128743,2.41555 z" />
      <path
         style="stroke-width:3.565;stroke-miterlimit:4;stroke-dasharray:none"
         id="path978"
         d="m 74.407407,108.36182 c 0.03708,1.4643 -0.149518,2.92529 -0.277661,4.38211 -0.127559,1.55958 -0.192196,3.12359 -0.219179,4.6879 0.06387,1.30549 -0.09249,2.58682 -0.346294,3.86357 -0.132993,1.08274 -0.571992,2.08127 -0.894895,3.1108 -0.306332,0.89237 -0.722979,1.7388 -1.133578,2.58615 -0.497615,0.8063 -0.872427,1.66918 -1.223902,2.54498 -0.267409,0.69161 -0.353634,1.43182 -0.516927,2.15142 -0.03506,0.0837 -0.07011,0.16743 -0.105167,0.25114 0,0 3.58666,-1.6806 3.58666,-1.6806 v 0 c 0.02669,-0.0962 0.05338,-0.19249 0.08007,-0.28874 0.150958,-0.70207 0.239167,-1.42223 0.529076,-2.0865 0.344623,-0.87011 0.77207,-1.6984 1.227283,-2.51595 0.413618,-0.85861 0.818312,-1.72508 1.111348,-2.63375 0.351557,-1.02969 0.691833,-2.06455 0.852355,-3.1454 0.240538,-1.29637 0.348816,-2.59883 0.306004,-3.91885 0.02543,-1.5509 0.06332,-3.10251 0.201848,-4.64827 0.131665,-1.4847 0.319733,-2.96632 0.351774,-4.45803 0,0 -3.528814,1.79802 -3.528814,1.79802 z" />
      <path
         style="stroke-width:3.565;stroke-miterlimit:4;stroke-dasharray:none"
         id="path980"
         d="m 75.606975,111.57763 c 0.577371,1.20054 1.168448,2.39307 1.80218,3.56508 0.542293,0.9991 1.043758,2.02442 1.363803,3.11759 0.219136,0.89735 0.170503,1.82706 0.243404,2.74101 0.131106,1.01719 0.392951,2.00795 0.670104,2.99298 0.204878,0.92604 0.347486,1.86785 0.466077,2.80901 0.110437,0.9845 0.128625,1.97551 0.142383,2.96503 0.0096,0.77832 0.04953,1.55157 -0.121952,2.3144 -0.176418,0.68442 -0.214349,1.39473 -0.386154,2.07866 0,0 3.554574,-1.71785 3.554574,-1.71785 v 0 c 0.12391,-0.69439 0.207468,-1.39616 0.377579,-2.08211 0.134006,-0.79126 0.09097,-1.58719 0.08129,-2.38729 -0.02286,-0.99931 -0.07571,-1.99858 -0.177504,-2.99314 -0.116885,-0.96246 -0.257381,-1.92636 -0.484082,-2.86951 -0.282024,-0.95579 -0.532368,-1.92448 -0.639016,-2.91787 -0.0656,-0.94366 -0.0131,-1.90669 -0.274243,-2.82605 -0.364713,-1.10354 -0.889606,-2.14184 -1.444633,-3.16095 -0.638821,-1.1565 -1.233422,-2.34008 -1.714156,-3.57204 0,0 -3.459655,1.94305 -3.459655,1.94305 z" />
      <path
         style="stroke-width:3.565;stroke-miterlimit:4;stroke-dasharray:none"
         id="path982"
         d="m 75.372636,125.16639 c 0.845804,-0.0678 1.650974,-0.33494 2.466721,-0.5471 0.259165,-0.0766 0.74272,-0.0482 0.20292,-0.42378 -0.0078,-0.005 -0.214757,0.0981 -0.291703,0.13573 -0.07867,0.0403 -0.161184,0.0738 -0.236014,0.12085 -0.166978,0.10497 -0.661291,0.42959 -0.490619,0.33074 5.530617,-3.20316 3.879024,-2.12294 2.618131,-1.58401 -0.08669,0.0366 -0.173387,0.0731 -0.260083,0.10968 0,0 -3.115402,2.44619 -3.115402,2.44619 v 0 c 0.08997,-0.0326 0.179938,-0.0653 0.269906,-0.0979 0.174771,-0.0781 0.366374,-0.11921 0.533419,-0.21268 1.484291,-0.83055 2.961254,-1.64177 4.380743,-2.56672 0.577893,-0.52228 0.09465,-0.90965 -0.476882,-0.65432 -0.807712,0.19217 -1.588947,0.51358 -2.422181,0.57271 0,0 -3.178956,2.3706 -3.178956,2.3706 z" />
      <path
         style="stroke-width:3.565;stroke-miterlimit:4;stroke-dasharray:none"
         id="path994"
         d="m 84.254704,126.24923 c -0.07131,1.13743 -0.132683,2.2754 -0.181626,3.41404 -0.0073,0.13188 -0.01355,0.26383 -0.02185,0.39565 -0.0019,0.0287 -0.02408,0.36788 -0.03539,0.37557 -0.02498,0.017 -0.07801,-0.0601 -0.05151,-0.0746 3.685188,-2.01928 3.655237,-0.51148 3.590584,-2.16525 0.05434,-1.11182 0.277746,-2.21333 0.650033,-3.26098 0.389552,-1.00902 0.919756,-1.95462 1.594176,-2.79923 0.30947,-0.35665 0.569748,-0.76731 0.909018,-1.09843 0.10169,-0.0992 0.453533,-0.34008 0.329994,-0.26987 -3.781687,2.14926 -3.842546,2.14523 -2.319854,1.48149 0.883135,-0.31858 1.806271,-0.49101 2.729376,-0.6433 0,0 3.122665,-2.34568 3.122665,-2.34568 v 0 c -0.937577,0.14685 -1.871932,0.31866 -2.784628,0.58366 -2.221508,0.74051 -4.283512,1.90925 -5.588889,3.84423 -0.635939,0.9005 -1.179039,1.8628 -1.53261,2.91152 -0.33642,1.1044 -0.563459,2.24009 -0.63559,3.39431 -0.05306,1.61142 -0.108336,0.46179 3.59509,-1.2674 0.02925,-0.0137 -0.0374,-0.0543 -0.04538,-0.0855 -0.0094,-0.037 -0.0048,-0.0763 -0.0057,-0.11453 -0.0049,-0.22135 -7.94e-4,-0.40186 0.0016,-0.62977 0.03222,-1.13701 0.077,-2.27624 0.228836,-3.40463 0,0 -3.548227,1.75873 -3.548227,1.75873 z" />
      <path
         style="stroke-width:3.565;stroke-miterlimit:4;stroke-dasharray:none"
         id="path996"
         d="m 96.590777,108.09455 c 0.0013,1.59334 -0.09373,3.18814 -0.144036,4.78154 -0.03709,1.55762 -0.08682,3.11522 -0.100566,4.67328 -0.0016,1.18323 7.94e-4,2.3665 -0.0031,3.54973 -0.03223,0.88909 0.01961,1.77985 0.197718,2.65196 0.145042,0.69259 0.307207,1.38363 0.506841,2.06272 0.20212,0.71631 0.384172,1.43705 0.498538,2.17299 0.05471,0.38605 0.07553,0.77532 0.09636,1.16424 0,0 3.503938,-1.81324 3.503938,-1.81324 v 0 c -0.029,-0.39999 -0.0585,-0.80018 -0.11736,-1.19721 -0.12783,-0.74869 -0.30319,-1.48855 -0.513,-2.21844 -0.18888,-0.66978 -0.35376,-1.34719 -0.49519,-2.0285 -0.153089,-0.84982 -0.216213,-1.70793 -0.190292,-2.57177 -0.0052,-1.18183 -0.0057,-2.36378 3.7e-5,-3.5456 0.0024,-1.54452 -0.0094,-3.08937 0.04565,-4.63329 0.0562,-1.61717 0.163515,-3.23074 0.243335,-4.84643 0,0 -3.528817,1.79802 -3.528817,1.79802 z" />
      <path
         style="stroke-width:3.565;stroke-miterlimit:4;stroke-dasharray:none"
         id="path998"
         d="m 89.270651,115.81196 c 1.109223,-0.10337 2.203064,-0.27756 3.289345,-0.52296 1.336453,-0.32908 2.623653,-0.82403 3.922112,-1.27434 1.401379,-0.38473 2.703618,-1.02344 4.016862,-1.63073 0.95267,-0.42035 1.91857,-0.81021 2.88326,-1.20199 0,0 3.05742,-2.40691 3.05742,-2.40691 v 0 c -0.96997,0.39425 -1.93617,0.79753 -2.90363,1.19782 -1.31664,0.58881 -2.59149,1.28458 -3.992871,1.65905 -1.29114,0.44023 -2.568435,0.92403 -3.881855,1.29556 -1.059286,0.24523 -2.120554,0.47137 -3.211687,0.5139 0,0 -3.178956,2.3706 -3.178956,2.3706 z" />
      <path
         style="stroke-width:3.565;stroke-miterlimit:4;stroke-dasharray:none"
         id="path1000"
         d="m 104.67883,120.66561 c 0.85957,0.32103 1.71886,0.6267 2.61384,0.83296 0.84211,0.21191 1.65487,0.093 2.4545,-0.20521 1.78578,-0.95629 4.10607,-1.92515 5.47302,-3.59269 0.4763,-0.62941 0.71878,-1.34618 0.85792,-2.11314 0.0559,-0.61902 -0.11502,-1.12804 -0.51077,-1.59509 -0.43502,-0.39245 -1.01876,-0.53138 -1.56123,-0.71189 -0.77654,-0.26039 -1.57618,-0.11847 -2.34629,0.0836 -1.58575,0.50214 -2.9485,1.54138 -4.36474,2.37796 -0.29415,0.17376 -0.58347,0.42669 -0.8347,0.65625 -0.70135,0.56196 -1.22629,1.3066 -1.80386,1.98871 -0.51486,0.58421 -0.83928,1.27657 -1.18256,1.96486 -0.32809,0.64039 -0.39432,1.34825 -0.44189,2.0537 -0.0922,0.7999 0.11768,1.55731 0.48284,2.26387 0.38121,0.68699 0.872,1.23253 1.53266,1.65204 0.62322,0.35188 1.32926,0.40685 2.02814,0.4457 0.73923,0.0688 1.4459,0.008 2.15546,-0.20339 1.6183,-0.63232 3.10747,-1.56895 4.49876,-2.6022 0.37962,-0.28192 0.71663,-0.54289 1.04215,-0.88697 0.0855,-0.0827 0.17103,-0.16543 0.25654,-0.24813 0,0 -3.65059,1.5071 -3.65059,1.5071 v 0 c -0.0828,0.0818 -0.1657,0.16349 -0.24854,0.24524 -0.33352,0.3008 -0.68004,0.5701 -1.05035,0.82516 -0.13644,0.094 -0.5591,0.35497 -0.41423,0.27462 4.07232,-2.25833 3.93875,-2.18387 2.67733,-1.54592 -0.31505,0.13759 -0.67619,0.28585 -1.01999,0.33303 -0.34108,0.0468 -0.70072,-0.036 -1.04306,-0.005 -0.64665,-0.0192 -1.31074,-0.0271 -1.91378,-0.29059 -0.63267,-0.33649 -1.0776,-0.82751 -1.42908,-1.45228 -0.32885,-0.65464 -0.46436,-1.34534 -0.37228,-2.07667 0.0613,-0.66879 0.17828,-1.32162 0.50677,-1.91794 0.33044,-0.67043 0.71186,-1.30653 1.20592,-1.87221 0.57165,-0.68388 1.12397,-1.39394 1.84559,-1.92992 0.23392,-0.17584 0.32093,-0.24583 0.56149,-0.40882 0.0974,-0.066 0.39808,-0.25047 0.29555,-0.19282 -5.60513,3.15196 -3.69525,2.00266 -2.44644,1.45102 0.70871,-0.21522 1.45838,-0.46236 2.19967,-0.26447 0.4876,0.15307 0.99502,0.28175 1.43634,0.54556 0.34938,0.35386 0.4329,0.76981 0.35219,1.25952 -0.16116,0.7101 -0.43937,1.3644 -0.93136,1.914 -0.30609,0.30292 -0.62439,0.58363 -0.96797,0.84427 -0.11427,0.0867 -0.47558,0.31958 -0.34996,0.25036 1.29011,-0.71088 4.18973,-2.4069 2.56907,-1.45999 -0.0346,0.015 -0.74019,0.32145 -0.78042,0.33398 -0.48766,0.15192 -1.03866,0.12899 -1.5354,0.0574 -0.87917,-0.16693 -1.72014,-0.43696 -2.54434,-0.78579 0,0 -3.30192,2.20045 -3.30192,2.20045 z" />
    </g>
    <path
       style="fill:#000000;stroke-width:0.264583"
       id="path24"
       d="" />
  </g>
</svg>
